<svg width="344" height="500" viewBox="0 0 344 500" fill="none" xmlns="http://www.w3.org/2000/svg">
<g clip-path="url(#clip0_27_15)">
<path d="M314.694 184.674C288.913 158.894 256.066 141.337 220.307 134.224C184.548 127.111 147.482 130.761 113.798 144.715C80.1139 158.667 51.3235 182.294 31.0676 212.61C10.8116 242.924 1.18801e-05 278.566 0 315.025C-1.18801e-05 351.485 10.8115 387.126 31.0674 417.441C51.3234 447.756 80.1139 471.384 113.798 485.336C147.482 499.289 184.548 502.939 220.307 495.827C256.066 488.713 288.913 471.157 314.694 445.376L247.473 378.155C234.987 390.641 219.08 399.145 201.761 402.59C184.442 406.035 166.491 404.266 150.177 397.509C133.864 390.751 119.92 379.308 110.11 364.626C100.299 349.944 95.0634 332.683 95.0634 315.025C95.0634 297.367 100.299 280.106 110.11 265.424C119.92 250.742 133.864 239.298 150.178 232.542C166.491 225.784 184.442 224.015 201.761 227.461C219.08 230.905 234.987 239.409 247.473 251.895L314.694 184.674Z" fill="white"/>
<path d="M343.434 315.657C343.434 309.356 342.193 303.116 339.782 297.295C337.371 291.475 333.837 286.186 329.381 281.73C324.926 277.274 319.636 273.74 313.816 271.33C307.995 268.918 301.755 267.677 295.455 267.677V315.657H343.434Z" fill="#FFFFB9"/>
<path d="M295.455 267.677C282.73 267.677 270.525 272.732 261.528 281.73C252.53 290.727 247.475 302.932 247.475 315.657H295.455V267.677Z" fill="#FFFFEE"/>
<path d="M247.475 315.656C247.475 324.076 249.689 332.346 253.898 339.638C258.106 346.929 264.158 352.986 271.447 357.198L295.455 315.656H247.475Z" fill="#FEFFD8"/>
<path d="M343.434 315.656C343.434 324.076 341.22 332.346 337.011 339.638C332.803 346.929 326.751 352.986 319.462 357.198L295.455 315.656H343.434Z" fill="#FEFFD8"/>
<path d="M319.433 357.215C312.141 361.422 303.87 363.636 295.452 363.636C287.033 363.636 278.763 361.42 271.471 357.212L295.455 315.656L319.433 357.215Z" fill="#FEFFB8"/>
<rect x="247.475" y="377.525" width="95.9596" height="121.212" fill="white"/>
<rect x="247.475" width="95.9596" height="252.525" fill="white"/>
</g>
<defs>
<clipPath id="clip0_27_15">
<rect width="343.434" height="500" fill="white"/>
</clipPath>
</defs>
</svg>
