<svg width="139" height="29" viewBox="0 0 139 29" fill="none" xmlns="http://www.w3.org/2000/svg">
<path d="M32.3046 14.5C32.3046 22.5081 25.8243 29 17.8305 29C9.83661 29 3.35632 22.5081 3.35632 14.5C3.35632 6.49187 9.83661 0 17.8305 0C25.8243 0 32.3046 6.49187 32.3046 14.5ZM10.9076 14.5C10.9076 18.3302 14.0071 21.4352 17.8305 21.4352C21.6538 21.4352 24.7533 18.3302 24.7533 14.5C24.7533 10.6698 21.6538 7.56479 17.8305 7.56479C14.0071 7.56479 10.9076 10.6698 10.9076 14.5Z" fill="url(#paint0_linear_102_299)"/>
<path fill-rule="evenodd" clip-rule="evenodd" d="M73 0H44.0517V29H73V0ZM65.4482 7.56522H51.6034V21.4348H65.4482V7.56522Z" fill="url(#paint1_linear_102_299)"/>
<path d="M0 0H35.6609V7.56522H0V0Z" fill="url(#paint2_linear_102_299)"/>
<path d="M114.702 22.1021H139V25.303H114.702V22.1021ZM124.879 16.0263H128.736V22.843H124.879V16.0263ZM117.225 3.04501H136.332V16.5302H117.225V3.04501ZM132.563 6.18661H121.023V13.4182H132.563V6.18661Z" fill="url(#paint3_linear_102_299)"/>
<path d="M105.281 1.05928H109.137V21.5686H105.281V1.05928ZM108.036 9.41713H112.704V12.6476H108.036V9.41713ZM88 3.9045H103.802V6.98683H88V3.9045ZM95.9156 7.96487C99.772 7.96487 102.498 10.1284 102.498 13.27C102.498 16.4116 99.772 18.5456 95.9156 18.5456C92.0303 18.5456 89.3048 16.4116 89.3048 13.27C89.3048 10.1284 92.0303 7.96487 95.9156 7.96487ZM95.9156 10.9583C94.2049 10.9583 93.0161 11.7881 93.0161 13.27C93.0161 14.7519 94.2049 15.5521 95.9156 15.5521C97.6264 15.5521 98.8151 14.7519 98.8151 13.27C98.8151 11.7881 97.6264 10.9583 95.9156 10.9583ZM93.973 1H97.8293V5.41603H93.973V1ZM91.8273 24.8584H110.094V28H91.8273V24.8584ZM91.8273 20.0274H95.6837V26.2217H91.8273V20.0274Z" fill="url(#paint4_linear_102_299)"/>
<defs>
<linearGradient id="paint0_linear_102_299" x1="0" y1="0" x2="139" y2="29" gradientUnits="userSpaceOnUse">
<stop offset="0.5" stop-color="#002D56"/>
<stop offset="0.5" stop-color="#8D704F"/>
</linearGradient>
<linearGradient id="paint1_linear_102_299" x1="0" y1="0" x2="139" y2="29" gradientUnits="userSpaceOnUse">
<stop offset="0.5" stop-color="#002D56"/>
<stop offset="0.5" stop-color="#8D704F"/>
</linearGradient>
<linearGradient id="paint2_linear_102_299" x1="0" y1="0" x2="139" y2="29" gradientUnits="userSpaceOnUse">
<stop offset="0.5" stop-color="#002D56"/>
<stop offset="0.5" stop-color="#8D704F"/>
</linearGradient>
<linearGradient id="paint3_linear_102_299" x1="0" y1="0" x2="139" y2="29" gradientUnits="userSpaceOnUse">
<stop offset="0.5" stop-color="#002D56"/>
<stop offset="0.5" stop-color="#8D704F"/>
</linearGradient>
<linearGradient id="paint4_linear_102_299" x1="0" y1="0" x2="139" y2="29" gradientUnits="userSpaceOnUse">
<stop offset="0.5" stop-color="#002D56"/>
<stop offset="0.5" stop-color="#8D704F"/>
</linearGradient>
</defs>
</svg>
