<svg width="1067" height="1025" viewBox="0 0 1067 1025" fill="none" xmlns="http://www.w3.org/2000/svg">
<g filter="url(#filter0_f_179_3)">
<path d="M778.5 300.193C778.5 428.568 614.114 375.727 517.275 375.727C420.435 375.727 300 387.675 300 259.3C300 130.925 490.994 -35.3979 614.459 5.239C711.299 5.239 778.5 171.818 778.5 300.193Z" fill="#FFFFB9"/>
</g>
<g filter="url(#filter1_f_179_3)">
<path d="M406 619.789C406 836.483 611.915 649.539 783.55 649.539C955.184 649.539 1254.07 767.457 1254.07 550.763C1254.07 334.069 1321.88 82.924 1103.05 151.518C931.42 151.518 406 403.095 406 619.789Z" fill="#0B106A"/>
</g>
<defs>
<filter id="filter0_f_179_3" x="0" y="-301" width="1078.5" height="987.499" filterUnits="userSpaceOnUse" color-interpolation-filters="sRGB">
<feFlood flood-opacity="0" result="BackgroundImageFix"/>
<feBlend mode="normal" in="SourceGraphic" in2="BackgroundImageFix" result="shape"/>
<feGaussianBlur stdDeviation="150" result="effect1_foregroundBlur_179_3"/>
</filter>
<filter id="filter1_f_179_3" x="106" y="-160" width="1458" height="1184.47" filterUnits="userSpaceOnUse" color-interpolation-filters="sRGB">
<feFlood flood-opacity="0" result="BackgroundImageFix"/>
<feBlend mode="normal" in="SourceGraphic" in2="BackgroundImageFix" result="shape"/>
<feGaussianBlur stdDeviation="150" result="effect1_foregroundBlur_179_3"/>
</filter>
</defs>
</svg>
