<svg width="1920" height="1080" viewBox="0 0 1920 1080" fill="none" xmlns="http://www.w3.org/2000/svg">
<g clip-path="url(#clip0_7_6)">
<rect width="1920" height="1080" fill="#000D18"/>
<path d="M1869.62 394.123C1821.5 370.623 1784.2 366.037 1784.2 366.037C1784.2 366.037 1780.68 377.384 1769.52 396.245C1773.85 419.015 1767.42 474.701 1763.9 489.862C1780.81 493.622 1905.11 517.454 1959.09 620.391C2065.9 824.048 1881.09 947.06 1881.09 947.06L1896.21 970.225C2037.41 886.381 2115.88 703.563 2019.92 535.706C1976.66 460.044 1917.73 417.631 1869.62 394.13L1869.62 394.123ZM1748.71 338.139C1747.2 337.345 1745.66 336.622 1744.08 335.971C1742.2 335.201 1740.42 334.729 1738.77 334.418C1737.03 334.181 1735.49 334.213 1734.04 334.571C1732.57 334.942 1731.23 335.686 1730.14 336.731C1728.92 337.834 1727.94 339.402 1727.15 341.338C1726.2 343.681 1725.86 345.67 1726.1 347.429C1726.35 349.183 1726.87 350.817 1727.78 352.244C1728.59 353.708 1729.59 355.057 1730.77 356.254C1731.93 357.494 1732.98 358.698 1733.99 359.867C1734.86 360.977 1735.56 362.217 1736.05 363.543C1736.49 364.799 1736.41 366.18 1735.79 367.712C1735.38 368.726 1734.79 369.433 1734.12 369.939C1733.38 370.46 1732.56 370.855 1731.69 370.973C1730.74 371.12 1729.8 371.093 1728.8 370.926C1727.78 370.75 1726.79 370.469 1725.83 370.088C1723.69 369.215 1722.03 367.897 1720.95 366.03C1719.77 364.254 1719.4 362.088 1719.93 359.636L1718.02 359.038L1715.31 367.652C1715.88 368.008 1716.51 368.5 1717.29 369.059C1718.02 369.591 1718.83 370.097 1719.71 370.692C1720.57 371.217 1721.47 371.755 1722.43 372.322C1723.36 372.814 1724.29 373.306 1725.2 373.678C1726.96 374.386 1728.79 374.91 1730.66 375.241C1732.46 375.491 1734.18 375.487 1735.79 375.181C1737.4 374.838 1738.9 374.097 1740.15 373.027C1741.41 371.992 1742.52 370.422 1743.34 368.392C1744.25 366.149 1744.5 364.182 1744.26 362.428C1743.97 360.743 1743.38 359.123 1742.53 357.638C1741.58 356.184 1740.52 354.866 1739.31 353.604C1738.03 352.375 1736.95 351.101 1736.01 349.897C1734.95 348.689 1734.22 347.453 1733.79 346.145C1733.3 344.884 1733.41 343.438 1734.05 341.867C1734.64 340.389 1735.82 339.386 1737.56 338.903C1739.22 338.449 1741.15 338.642 1743.29 339.516C1745.13 340.248 1746.51 341.225 1747.51 342.402C1748.45 343.609 1748.81 345.356 1748.63 347.533L1750.51 348.169L1753.07 340.266C1751.64 339.687 1750.16 338.963 1748.71 338.139ZM1722.13 328.362C1719.53 327.648 1716.86 326.801 1714.14 325.944C1711.36 325.058 1708.74 324.232 1706.23 323.434C1704.45 322.87 1702.66 322.293 1700.94 321.747C1699.15 321.185 1697.43 320.634 1695.68 319.958L1694.97 322.211C1696 322.596 1696.82 322.931 1697.47 323.246C1698.06 323.548 1698.46 323.908 1698.79 324.36C1699 324.769 1699.12 325.327 1699.07 326.005C1698.96 326.719 1698.72 327.621 1698.37 328.723L1691.16 351.449C1690.73 352.818 1690.34 353.839 1690.03 354.618C1689.67 355.422 1689.19 356.016 1688.74 356.337C1688.49 356.52 1688.21 356.65 1687.91 356.722C1687.61 356.794 1687.29 356.805 1686.99 356.755C1686.27 356.703 1685.36 356.478 1684.2 356.114L1683.49 358.367C1685.46 358.868 1687.39 359.485 1689.33 360.102C1691.22 360.699 1693.16 361.316 1695.15 361.941C1697.76 362.777 1700.39 363.609 1702.99 364.499C1705.61 365.325 1708.2 366.202 1710.83 367.035C1711.44 365.644 1712.1 364.278 1712.82 362.939C1713.46 361.645 1714.1 360.352 1714.86 359.04L1712.88 358.174C1712 359.157 1711.25 359.909 1710.58 360.387C1709.82 360.951 1709.12 361.305 1708.38 361.475C1707.62 361.695 1706.82 361.672 1705.95 361.511C1705.06 361.406 1704 361.122 1702.84 360.757L1700.08 359.867C1698.6 359.405 1697.82 358.645 1697.83 357.494C1697.73 356.366 1698.06 354.795 1698.69 352.805L1701.48 344.007L1704.73 345.033C1705.73 345.354 1706.6 345.682 1707.33 345.916C1707.98 346.237 1708.5 346.584 1708.94 347.008C1709.26 347.457 1709.49 347.992 1709.52 348.636C1709.53 349.331 1709.36 350.259 1709.01 351.355L1710.83 351.937C1711.12 351.047 1711.4 349.985 1711.71 348.82C1711.96 347.686 1712.28 346.687 1712.57 345.737C1712.74 345.195 1712.93 344.66 1713.14 344.136C1713.32 343.537 1713.53 342.946 1713.75 342.364C1713.93 341.841 1714.09 341.309 1714.31 340.809C1714.42 340.404 1714.57 340.009 1714.74 339.629L1712.91 339.044C1712.81 339.36 1712.66 339.653 1712.48 340.056C1712.22 340.487 1711.88 340.87 1711.49 341.188C1710.99 341.536 1710.42 341.772 1709.83 341.877C1709.1 341.994 1708.26 341.891 1707.27 341.569L1702.71 340.126L1706.8 327.248L1711.62 328.773C1712.77 329.139 1713.79 329.572 1714.65 329.967C1715.42 330.442 1716.11 330.955 1716.63 331.516C1717.07 332.123 1717.37 332.802 1717.6 333.558C1717.69 334.338 1717.69 335.259 1717.6 336.264L1719.52 336.579L1722.13 328.362ZM1690.9 318.8C1690.26 318.641 1689.56 318.48 1688.81 318.294C1688.06 318.161 1687.31 317.967 1686.57 317.788C1685.75 317.643 1685.01 317.462 1684.26 317.272C1683.52 317.093 1682.82 316.916 1682.23 316.775L1680.25 316.28C1679.51 316.106 1678.83 315.926 1678.09 315.687C1677.34 315.503 1676.6 315.32 1675.92 315.099C1675.17 314.906 1674.48 314.733 1673.84 314.574L1673.26 316.873C1673.96 317.046 1674.57 317.262 1675.21 317.418C1675.72 317.656 1676.22 317.951 1676.59 318.268C1676.95 318.693 1677.17 319.143 1677.31 319.733C1677.39 320.326 1677.35 321.171 1677.11 322.125L1670.56 348.54C1670.32 349.559 1669.97 350.27 1669.62 350.746C1669.22 351.212 1668.8 351.563 1668.32 351.664C1667.81 351.878 1667.25 351.917 1666.71 351.774C1666.04 351.731 1665.4 351.571 1664.71 351.395L1664.14 353.685C1665.43 353.953 1666.87 354.311 1668.58 354.73C1670.19 355.079 1671.69 355.452 1672.97 355.77C1674.32 356.091 1675.66 356.439 1677 356.815C1678.5 357.188 1679.93 357.598 1681.21 357.915L1681.78 355.625C1681.03 355.441 1680.38 355.28 1679.88 355.041C1679.24 354.885 1678.81 354.604 1678.46 354.181C1678.06 353.802 1677.8 353.294 1677.73 352.744C1677.6 352.145 1677.68 351.374 1677.93 350.358L1684.47 323.953C1684.71 322.994 1685.02 322.223 1685.42 321.748C1685.76 321.273 1686.22 320.992 1686.74 320.778C1687.22 320.671 1687.74 320.621 1688.4 320.674C1688.93 320.81 1689.58 320.914 1690.33 321.104L1690.9 318.8ZM1651.31 310.651C1649.82 310.105 1648.2 309.684 1646.46 309.392C1644.41 309.046 1642.72 308.805 1641.42 308.586C1640.01 308.398 1638.76 308.19 1637.63 307.994C1636.54 307.814 1635.51 307.64 1634.43 307.446C1633.35 307.269 1632.26 307.082 1631.25 306.796L1630.86 309.131C1631.45 309.236 1632.04 309.386 1632.69 309.499C1633.21 309.697 1633.73 309.958 1634.17 310.303C1634.54 310.702 1634.84 311.265 1635.06 311.968C1635.22 312.659 1635.22 313.609 1635.01 314.798L1630.63 340.681C1630.4 341.644 1630.16 342.383 1629.85 342.892C1629.54 343.404 1629.14 343.775 1628.73 343.928C1628.23 344.182 1627.68 344.255 1627.06 344.264C1626.34 344.268 1625.62 344.238 1624.91 344.175L1624.51 346.503C1625.71 346.647 1626.95 346.858 1628.14 347.06C1629.34 347.21 1630.53 347.417 1631.78 347.629C1633.03 347.837 1634.22 348.046 1635.35 348.292C1636.43 348.477 1637.67 348.734 1639.07 348.975C1642.21 349.508 1645.04 349.591 1647.55 349.296C1649.94 348.973 1652.1 348.398 1653.92 347.479C1655.67 346.673 1657.2 345.586 1658.48 344.241C1659.69 342.997 1660.7 341.667 1661.55 340.256C1662.29 338.994 1662.89 337.658 1663.35 336.271C1663.7 335.164 1663.98 334.037 1664.19 332.895C1664.62 330.383 1664.61 327.817 1664.16 325.31C1663.63 322.792 1662.63 320.395 1661.23 318.241C1659.76 316.102 1657.78 314.267 1655.38 312.632C1654.09 311.834 1652.73 311.17 1651.31 310.651ZM1648.85 313.744C1649.73 314.108 1650.55 314.569 1651.29 315.111C1652.71 316.242 1653.88 317.61 1654.7 319.262C1655.53 320.962 1656.05 322.831 1656.31 324.934C1656.5 327.081 1656.44 329.353 1656.04 331.741C1655.7 333.688 1655.16 335.541 1654.52 337.392C1653.8 339.269 1652.88 340.838 1651.76 342.206C1650.61 343.562 1649.14 344.617 1647.49 345.28C1645.82 345.992 1643.84 346.161 1641.57 345.775C1641.03 345.681 1640.49 345.536 1640.07 345.357C1639.61 345.223 1639.21 344.937 1638.93 344.546C1638.55 344.146 1638.37 343.666 1638.24 343.035C1638.12 342.452 1638.15 341.625 1638.31 340.647L1643.08 312.656C1643.45 312.718 1643.84 312.723 1644.18 312.674C1644.5 312.738 1645.12 312.78 1645.99 312.926C1646.97 313.092 1647.93 313.366 1648.85 313.744ZM1626.52 306.269C1625.54 306.196 1624.49 306.174 1623.34 306.093C1622.13 306.06 1621.09 305.99 1620.15 305.925C1618.96 305.841 1617.69 305.743 1616.32 305.601C1614.9 305.494 1613.58 305.411 1612.44 305.275L1612.27 307.632C1613.48 307.776 1614.41 307.892 1615.11 308.047C1615.43 308.117 1615.72 308.252 1615.98 308.442C1616.24 308.633 1616.46 308.875 1616.62 309.153C1616.91 309.778 1617.06 310.721 1617.08 311.985C1617.05 313.303 1616.97 315.119 1616.81 317.422L1615.81 331.562C1615.73 332.765 1615.53 333.963 1615.28 335.211C1614.97 336.512 1614.44 337.689 1613.82 338.692C1613.14 339.746 1612.25 340.613 1611.17 341.202C1610.02 341.895 1608.62 342.129 1606.98 342.019C1605.44 341.902 1604.21 341.485 1603.27 340.76C1602.22 340.026 1601.46 339.033 1600.89 337.778C1600.27 336.435 1599.88 334.992 1599.76 333.516C1599.54 331.902 1599.56 330.145 1599.69 328.282L1600.91 311.015C1600.98 310.026 1601.15 309.222 1601.46 308.691C1601.71 308.151 1602.13 307.796 1602.59 307.492C1603.04 307.306 1603.55 307.182 1604.22 307.115C1604.76 307.155 1605.43 307.15 1606.19 307.203L1606.36 304.845C1605.7 304.792 1604.98 304.748 1604.22 304.699C1603.45 304.705 1602.68 304.641 1601.91 304.585C1601.1 304.585 1600.32 304.528 1599.55 304.467C1598.79 304.42 1598.08 304.368 1597.48 304.329C1596.82 304.284 1596.16 304.23 1595.45 304.18C1594.7 304.144 1593.94 304.074 1593.2 303.968C1592.45 303.934 1591.7 303.864 1590.95 303.758C1590.19 303.717 1589.48 303.658 1588.82 303.611L1588.66 305.964C1589.37 306.02 1590.02 306.122 1590.68 306.16C1591.21 306.309 1591.76 306.523 1592.18 306.775C1592.6 307.128 1592.9 307.527 1593.13 308.095C1593.31 308.663 1593.41 309.501 1593.34 310.48L1592.02 329.172C1591.66 334.431 1592.58 338.457 1594.86 341.265C1597.09 344.073 1600.55 345.691 1605.26 346.026C1607.73 346.194 1609.9 345.964 1611.76 345.318C1613.57 344.627 1615.07 343.681 1616.31 342.393C1617.57 341.055 1618.55 339.473 1619.18 337.744C1619.83 335.848 1620.23 333.874 1620.36 331.873L1621.37 317.572C1621.46 316.094 1621.59 314.619 1621.74 313.146C1621.82 312.001 1622.05 311.072 1622.44 310.333C1622.7 309.689 1623.19 309.168 1623.81 308.878C1624.37 308.644 1625.26 308.549 1626.36 308.619L1626.52 306.269ZM1584.83 302.85L1582.36 302.893C1582.25 303.225 1581.92 303.449 1581.49 303.565C1581 303.684 1580.29 303.753 1579.3 303.772L1558.22 304.165C1557.12 304.189 1556.42 304.212 1556.08 304.099C1555.7 304.058 1555.41 303.835 1555.24 303.403L1552.83 303.445L1552.85 313.557L1555.1 313.514C1555.3 312.626 1555.45 311.805 1555.66 311.141C1555.76 310.542 1555.99 309.973 1556.34 309.479C1556.67 309.087 1557.15 308.802 1557.81 308.578C1558.46 308.396 1559.4 308.269 1560.66 308.242L1564.83 308.16L1565.38 337.753C1565.4 338.793 1565.25 339.559 1565.04 340.118C1564.77 340.676 1564.46 341.123 1564.02 341.351C1563.59 341.693 1563.04 341.853 1562.49 341.867C1561.83 341.989 1561.17 342.002 1560.46 342.018L1560.5 344.374C1561.83 344.294 1563.3 344.279 1565.06 344.241C1566.7 344.155 1568.25 344.122 1569.56 344.096C1570.95 344.063 1572.34 344.056 1573.73 344.074C1575.27 344.046 1576.75 344.076 1578.07 344.057L1578.03 341.692C1577.26 341.706 1576.6 341.717 1576.05 341.615C1575.39 341.626 1574.9 341.473 1574.45 341.154C1573.96 340.899 1573.59 340.478 1573.38 339.968C1573.1 339.423 1572.97 338.662 1572.95 337.614L1572.41 308.021L1577.73 307.913C1578.83 307.894 1579.65 308.002 1580.31 308.2C1580.92 308.461 1581.43 308.78 1581.76 309.213C1582.05 309.698 1582.27 310.245 1582.39 310.858C1582.46 311.512 1582.53 312.22 1582.55 312.99L1584.84 312.948L1584.83 302.85ZM1540.87 285.244C1538.46 285.524 1536.04 285.646 1533.61 285.607C1530.97 285.669 1528.41 285.801 1525.96 286.088C1523.21 286.412 1520.5 287.008 1517.87 287.866C1515.41 288.813 1513.39 289.97 1511.75 291.49C1510.1 293.008 1508.91 294.895 1508.18 297.132C1507.37 299.473 1507.19 302.239 1507.56 305.343C1508 309.107 1509 311.969 1510.58 314.108C1512.16 316.239 1514.02 318.017 1516.24 319.247C1518.38 320.573 1520.67 321.626 1523.07 322.345C1525.37 323.109 1527.65 323.919 1529.91 324.777C1532.01 325.696 1533.8 326.804 1535.28 328.129C1536.76 329.444 1537.64 331.337 1537.93 333.788C1538.12 335.43 1537.87 336.783 1537.33 337.921C1536.73 339.158 1535.94 340.246 1534.88 341.028C1533.73 341.911 1532.44 342.596 1531.06 343.057C1529.54 343.57 1528 343.918 1526.53 344.09C1523.09 344.489 1519.96 343.945 1517.19 342.281C1514.36 340.79 1512.33 338.217 1511.24 334.601L1508.32 335.198L1510.95 348.491C1511.95 348.544 1513.14 348.733 1514.57 348.901C1515.91 349.069 1517.33 349.148 1518.93 349.291C1520.42 349.364 1522.01 349.427 1523.67 349.483C1525.25 349.466 1526.82 349.442 1528.3 349.27C1531.13 348.937 1533.92 348.303 1536.62 347.379C1539.16 346.423 1541.42 345.159 1543.31 343.607C1545.12 342.066 1546.54 340.078 1547.51 337.635C1548.4 335.375 1548.73 332.521 1548.35 329.248C1547.93 325.647 1546.85 322.872 1545.27 320.737C1543.66 318.735 1541.73 317.025 1539.54 315.68C1537.26 314.467 1534.87 313.473 1532.4 312.711C1529.83 312.013 1527.48 311.124 1525.38 310.212C1523.13 309.401 1521.26 308.296 1519.76 306.889C1518.2 305.588 1517.3 303.613 1517.01 301.073C1516.72 298.704 1517.57 296.529 1519.5 294.644C1521.36 292.853 1524.04 291.703 1527.48 291.294C1530.42 290.95 1532.94 291.242 1535.11 292.064C1537.21 292.981 1538.95 295.015 1540.3 298.01L1543.22 297.497L1540.87 285.244ZM1733.32 415.63C1688.62 393.911 1640.57 381.836 1590.51 379.73C1391.11 371.343 1222.02 526.78 1213.58 726.224C1207.49 870.342 1287.38 1004.19 1417.11 1067.22C1430.1 1073.53 1443.4 1078.93 1456.93 1083.61C1455.93 1078.68 1455.04 1073.74 1454.24 1068.77C1443.61 1064.84 1433.13 1060.4 1422.85 1055.41C1297.83 994.66 1220.84 865.664 1226.71 726.775C1234.85 534.572 1397.8 384.775 1589.96 392.855C1638.21 394.879 1684.5 406.516 1727.58 427.444C1737.54 432.287 1747.16 437.608 1756.5 443.291C1756.88 438.357 1757.17 433.417 1757.38 428.472C1749.52 423.893 1741.5 419.608 1733.32 415.63ZM1480.74 313.906C1479.69 314.198 1478.59 314.559 1477.32 314.906C1476.01 315.319 1474.84 315.641 1473.83 315.927C1472.56 316.274 1471.25 316.64 1469.75 316.999C1468.26 317.408 1466.88 317.787 1465.65 318.065L1466.28 320.342C1467.55 319.994 1468.69 319.786 1469.6 319.77C1470.52 319.798 1471.25 320.003 1471.88 320.401C1472.45 320.815 1472.96 321.405 1473.4 322.202C1473.8 323 1474.19 324.031 1474.54 325.301L1479.69 343.988L1448.53 322.509C1448.18 322.719 1447.73 322.901 1447.2 323.045C1446.65 323.312 1446.06 323.477 1445.47 323.638C1444.86 323.865 1444.22 324.042 1443.69 324.192C1443.24 324.355 1442.79 324.497 1442.34 324.617C1441.49 324.857 1440.58 325.101 1439.51 325.336C1438.4 325.643 1437.45 325.91 1436.64 326.081L1437.27 328.348C1439.54 327.715 1441.31 327.745 1442.64 328.402C1443.91 329.132 1444.92 330.685 1445.58 333.068L1451.28 353.773C1451.78 355.571 1451.98 356.935 1451.98 357.965C1451.93 359.008 1451.74 359.798 1451.38 360.357C1451.01 360.945 1450.45 361.397 1449.8 361.647C1449.09 361.962 1448.35 362.158 1447.56 362.382L1448.18 364.649C1449.33 364.28 1450.6 363.93 1452.08 363.521C1453.5 363.064 1454.82 362.708 1455.99 362.383C1457.15 362.063 1458.43 361.718 1459.92 361.357C1461.36 360.966 1462.69 360.644 1463.85 360.326L1463.22 358.058C1461.74 358.47 1460.6 358.667 1459.73 358.623C1459.32 358.64 1458.9 358.574 1458.5 358.426C1458.11 358.279 1457.75 358.054 1457.45 357.765C1456.85 357.256 1456.33 356.366 1455.88 355.18C1455.4 354.054 1454.91 352.487 1454.38 350.579L1449.35 332.313L1482.99 355.564L1486.59 354.566L1477.97 323.276C1477.59 321.897 1477.41 320.804 1477.4 319.954C1477.39 319.272 1477.55 318.598 1477.88 318.001C1478.25 317.518 1478.73 317.132 1479.28 316.876C1479.85 316.661 1480.52 316.416 1481.37 316.179L1480.74 313.906ZM1722.6 458.927L1712.27 467.058C1712.55 467.406 1727.2 486.274 1744.23 519.189L1746.16 519.241C1748.52 519.328 1750.84 519.449 1753.18 519.596L1754.62 519.699C1756.27 519.814 1757.9 519.953 1759.54 520.095C1756.21 513.374 1752.71 506.733 1749.06 500.18L1747.92 499.924L1748.22 498.658C1734.44 474.163 1723.57 460.168 1722.6 458.927ZM1846.74 529.202L1839.66 543.786C1948.81 596.82 1996.64 724.264 1942.53 835.624C1926.17 869.302 1901.36 898.399 1870.77 919.769L1880.33 932.725C1909.15 912.582 1941.43 874.991 1957.11 842.709C2013.86 725.924 1963.5 585.932 1846.74 529.202ZM1428.91 330.826C1426.55 331.118 1424.28 331.37 1422.14 331.63C1419.84 331.943 1417.6 332.538 1415.45 333.401C1412.92 334.392 1410.62 335.892 1408.69 337.808C1406.79 339.74 1405.38 341.845 1404.44 344.232C1403.44 346.629 1402.99 349.23 1403.01 351.94C1403.07 354.83 1403.66 357.684 1404.75 360.363C1405.25 361.636 1405.9 362.98 1406.78 364.291C1407.64 365.685 1408.68 366.959 1409.88 368.078C1411.08 369.332 1412.45 370.42 1413.94 371.311C1415.48 372.269 1417.18 372.957 1418.95 373.346C1420.74 373.816 1422.69 373.988 1424.82 373.842C1426.91 373.724 1429.16 373.183 1431.57 372.228C1433.78 371.346 1435.87 370.18 1437.77 368.759C1439.57 367.339 1441.44 365.944 1443.33 364.602L1443.15 364.136C1442.62 363.659 1442.18 363.098 1441.83 362.475C1441.4 361.822 1441.02 361.023 1440.62 360.006L1438.47 354.594C1438.08 353.621 1437.88 352.813 1437.91 352.155C1437.9 351.632 1438.02 351.114 1438.27 350.651C1438.53 350.283 1438.87 349.983 1439.28 349.776C1439.68 349.613 1440.13 349.374 1440.53 349.218L1439.66 347.022C1438.86 347.394 1437.95 347.757 1436.87 348.19C1435.76 348.681 1434.64 349.128 1433.48 349.599C1432.86 349.839 1432.19 350.103 1431.43 350.406C1430.61 350.732 1429.79 351.052 1428.95 351.328C1428.08 351.672 1427.27 352.002 1426.49 352.253C1425.67 352.573 1424.95 352.867 1424.34 353.109L1425.22 355.306C1425.88 355.047 1426.51 354.856 1427.12 354.618C1427.66 354.456 1428.22 354.406 1428.71 354.445C1429.25 354.594 1429.7 354.832 1430.15 355.24C1430.58 355.716 1431.04 356.416 1431.42 357.384L1434.84 366.02C1434.56 366.488 1434.03 366.94 1433.38 367.378C1432.69 367.883 1431.84 368.283 1430.87 368.673C1428.88 369.465 1426.94 369.636 1425.04 369.151C1423.09 368.734 1421.32 367.842 1419.65 366.615C1417.93 365.346 1416.42 363.813 1415.18 362.072C1413.92 360.354 1412.88 358.485 1412.08 356.508C1411.36 354.655 1410.89 352.713 1410.68 350.735C1410.41 348.776 1410.48 346.786 1410.89 344.851C1411.3 343.022 1412.06 341.291 1413.13 339.754C1414.19 338.273 1415.75 337.124 1417.69 336.356C1418.92 335.867 1420.16 335.555 1421.36 335.305C1422.52 335.187 1423.69 335.201 1424.85 335.345C1426.02 335.581 1427.07 336.003 1428.13 336.589C1429.11 337.268 1430.06 338.187 1430.93 339.32L1432.81 338.568L1428.91 330.826ZM1595.08 426.963L1581.96 426.404L1576.37 558.581C1580.88 557.039 1585.32 555.536 1589.7 554.054L1595.08 426.963ZM1835.77 554.314C1835.07 553.981 1834.37 553.649 1833.67 553.322C1832.04 552.568 1830.41 551.842 1828.78 551.128C1828.14 550.857 1827.51 550.572 1826.87 550.309C1824.66 549.369 1822.44 548.457 1820.21 547.599C1819.95 547.502 1819.68 547.408 1819.41 547.31C1817.44 546.551 1815.45 545.828 1813.46 545.128C1812.76 544.888 1812.06 544.658 1811.36 544.428C1809.73 543.872 1808.09 543.335 1806.45 542.828C1803.52 541.899 1800.56 541.037 1797.59 540.241C1795.36 539.64 1793.12 539.089 1790.88 538.557C1790.18 538.394 1789.48 538.249 1788.79 538.089C1786.45 537.561 1784.09 537.069 1781.73 536.611C1779.77 536.227 1777.8 535.883 1775.83 535.556C1775.53 535.506 1775.23 535.448 1774.94 535.4C1772.69 535.037 1770.44 534.709 1768.2 534.413C1767.54 534.325 1766.88 534.255 1766.21 534.173C1764.57 533.97 1762.94 533.783 1761.3 533.607C1758.77 533.359 1756.25 533.147 1753.72 532.97C1753.26 532.935 1752.79 532.889 1752.33 532.86C1749.5 532.685 1746.68 532.56 1743.85 532.484C1741.48 532.41 1739.11 532.376 1736.73 532.38C1735.05 532.381 1733.37 532.401 1731.69 532.443C1731.15 532.456 1730.59 532.457 1730.05 532.475C1727.88 532.534 1725.71 532.618 1723.56 532.737C1723.02 532.766 1722.47 532.814 1721.94 532.845C1720.27 532.945 1718.62 533.057 1716.96 533.192C1714.66 533.38 1712.36 533.601 1710.07 533.856C1709.49 533.921 1708.91 533.982 1708.33 534.05C1706.22 534.291 1704.12 534.563 1702.02 534.865C1701.59 534.926 1701.18 534.995 1700.75 535.055C1699.05 535.31 1697.36 535.575 1695.68 535.86C1695.01 535.971 1694.35 536.09 1693.69 536.209C1692.16 536.481 1690.65 536.769 1689.14 537.065L1687.37 537.416C1685.34 537.831 1683.32 538.27 1681.3 538.732C1681.05 538.79 1680.8 538.858 1680.55 538.919C1678.79 539.332 1677.03 539.767 1675.28 540.224C1674.67 540.382 1674.05 540.549 1673.44 540.709C1672 541.096 1670.57 541.492 1669.15 541.903C1668.57 542.068 1667.98 542.235 1667.4 542.409C1665.46 542.982 1663.54 543.561 1661.65 544.179C1625.15 556 1543.35 583.207 1483.4 605.67L1478.11 607.663L1476.63 608.236C1475.46 608.682 1474.31 609.124 1473.21 609.555L1471.48 610.237C1470.54 610.601 1469.61 610.974 1468.72 611.333L1466.98 612.045C1465.65 612.592 1464.32 613.155 1463.01 613.734C1462.31 614.04 1461.64 614.33 1460.99 614.631C1459.91 615.119 1458.84 615.633 1457.78 616.173C1457.35 616.391 1456.9 616.602 1456.5 616.814C1455.97 617.098 1455.49 617.374 1455.01 617.646C1454.66 617.843 1454.31 618.046 1453.97 618.255C1453.5 618.541 1453.09 618.825 1452.68 619.103C1452.42 619.276 1452.14 619.456 1451.91 619.633C1451.51 619.935 1451.13 620.258 1450.76 620.601C1450.63 620.72 1450.46 620.846 1450.34 620.961C1449.95 621.35 1449.59 621.78 1449.29 622.246C1449.22 622.366 1449.19 622.484 1449.13 622.601C1448.97 622.887 1448.84 623.194 1448.76 623.514C1448.73 623.679 1448.74 623.836 1448.73 623.995C1448.71 624.258 1448.71 624.512 1448.75 624.775C1448.79 624.943 1448.87 625.12 1448.93 625.292C1449.11 625.755 1449.37 626.183 1449.69 626.556C1449.89 626.799 1450.11 627.029 1450.37 627.27C1450.57 627.451 1450.79 627.632 1451.01 627.812C1451.32 628.059 1451.67 628.303 1452.04 628.549C1452.32 628.734 1452.59 628.915 1452.9 629.093C1453.33 629.343 1453.81 629.59 1454.3 629.846C1454.67 630.032 1455.02 630.218 1455.42 630.415C1455.77 630.578 1456.15 630.738 1456.52 630.904C1457.05 631.14 1457.59 631.382 1458.18 631.616C1459.26 632.048 1460.35 632.462 1461.45 632.856C1461.94 633.028 1462.43 633.209 1462.96 633.384C1463.69 633.64 1464.47 633.892 1465.27 634.148C1465.81 634.322 1466.33 634.5 1466.9 634.676C1467.78 634.954 1468.73 635.233 1469.68 635.518C1470.24 635.688 1470.77 635.853 1471.35 636.02C1472.5 636.353 1473.72 636.694 1474.96 637.043C1475.42 637.165 1475.85 637.289 1476.32 637.418C1478.06 637.894 1479.88 638.383 1481.8 638.881C1483.82 639.412 1485.84 639.928 1487.87 640.428C1488.62 640.623 1489.45 640.81 1490.24 641.005C1491.63 641.352 1493.04 641.701 1494.51 642.055C1495.42 642.278 1496.37 642.501 1497.31 642.727C1498.74 643.065 1500.18 643.416 1501.67 643.772L1504.84 644.513L1509.48 645.592C1510.6 645.848 1511.72 646.104 1512.88 646.372C1514.49 646.737 1516.16 647.123 1517.84 647.5C1519.03 647.776 1520.21 648.047 1521.43 648.323C1523.3 648.747 1525.23 649.187 1527.19 649.623C1528.28 649.87 1529.35 650.111 1530.47 650.358C1530.82 650.441 1531.2 650.52 1531.55 650.597C1533.35 651 1535.18 651.42 1537.04 651.832L1537.13 651.855C1558.77 656.082 1581.26 662.001 1602.7 670.294C1632.4 681.788 1661.19 698.378 1685.35 717.336C1688.21 719.58 1691 721.852 1693.73 724.155C1697.86 727.654 1701.82 731.207 1705.6 734.818C1705.89 735.095 1706.17 735.376 1706.45 735.646C1708.83 737.945 1711.13 740.261 1713.35 742.595C1716.54 745.921 1719.62 749.352 1722.58 752.882C1724.46 755.143 1726.25 757.397 1727.96 759.667C1728.52 760.408 1729.09 761.047 1729.66 761.744C1733.01 765.893 1736.47 769.361 1740.01 772.012C1743.12 774.346 1746.29 776.072 1749.46 777.189C1753.58 778.648 1757.7 779.093 1761.73 778.398C1770.26 776.904 1777.5 770.393 1780.16 761.805C1782.62 753.851 1780.53 745.867 1774.43 739.918C1774.26 739.756 1774.07 739.614 1773.9 739.459C1771.07 736.885 1767.66 735.271 1764.13 734.799C1763.1 734.651 1762.05 734.608 1761 734.67C1759 734.781 1757.05 735.316 1755.27 736.241C1753.49 737.166 1751.93 738.459 1750.69 740.034C1748.5 742.779 1748.36 744.852 1748.36 744.941C1748.43 747.909 1746.1 750.272 1743.13 750.349C1742.22 750.367 1741.32 750.151 1740.52 749.722C1739.71 749.293 1739.03 748.664 1738.54 747.897C1737.98 747.048 1737.66 746.055 1737.63 745.034C1737.61 744.089 1737.73 739.078 1742.29 733.34C1745.1 729.78 1748.84 727.065 1753.1 725.49C1755.42 724.625 1757.86 724.106 1760.33 723.952C1763.72 723.736 1767.11 724.229 1770.35 725.268C1773.8 726.374 1777.01 728.11 1779.82 730.387C1780.54 730.971 1781.25 731.583 1781.92 732.237C1790.88 740.97 1794.06 753.204 1790.42 764.975C1786.59 777.375 1776.04 786.796 1763.57 788.973C1758.88 789.787 1751.79 789.886 1743.56 786.419C1740.58 785.167 1737.45 783.431 1734.24 781.097C1730.77 778.585 1727.21 775.368 1723.6 771.269C1722.2 769.678 1720.8 768.008 1719.39 766.136C1718.47 764.914 1717.47 763.687 1716.5 762.469C1716.43 762.575 1716.36 762.679 1716.29 762.782L1715.91 761.747C1713.17 758.353 1710.32 755.056 1707.35 751.863C1704.86 749.175 1702.29 746.551 1699.66 743.994C1695.83 740.272 1691.89 736.675 1687.83 733.209C1685.1 730.867 1682.31 728.581 1679.48 726.351C1664.99 714.928 1649.5 704.821 1633.21 696.15C1627.91 693.307 1622.53 690.616 1617.08 688.081C1613.75 686.534 1610.38 685.053 1607.01 683.633C1604.29 682.487 1601.57 681.371 1598.82 680.311C1595.8 679.141 1592.76 678.036 1589.7 676.959C1590.26 677.373 1590.82 677.794 1591.39 678.217L1593.24 679.63C1594.16 680.319 1595.06 681.011 1595.98 681.722C1596.63 682.228 1597.28 682.733 1597.94 683.246C1598.86 683.969 1599.77 684.704 1600.7 685.447C1601.35 685.97 1602.01 686.491 1602.67 687.03C1603.04 687.337 1603.44 687.634 1603.82 687.949C1604.41 688.433 1605.01 688.939 1605.59 689.429C1606.23 689.946 1606.85 690.453 1607.48 690.981C1608.57 691.888 1609.67 692.814 1610.76 693.744L1612.06 694.845L1612.36 695.09C1615.63 697.898 1618.95 700.82 1622.28 703.84C1622.82 704.324 1623.35 704.816 1623.89 705.311C1624.41 705.778 1624.92 706.255 1625.43 706.731C1626.06 707.301 1626.68 707.867 1627.3 708.443C1627.95 709.04 1628.6 709.654 1629.24 710.255C1630.28 711.232 1631.32 712.214 1632.36 713.213C1632.69 713.516 1633.01 713.816 1633.33 714.13C1633.69 714.472 1634.06 714.831 1634.42 715.181C1635.42 716.147 1636.43 717.119 1637.44 718.1C1638.14 718.788 1638.84 719.488 1639.54 720.186C1640.54 721.168 1641.53 722.157 1642.53 723.163C1643.22 723.856 1643.92 724.554 1644.62 725.261C1645.19 725.835 1645.74 726.404 1646.3 726.983C1646.76 727.452 1647.22 727.924 1647.67 728.402C1648.33 729.085 1649.01 729.761 1649.67 730.453C1650.78 731.616 1651.89 732.794 1653 733.971C1653.31 734.296 1653.62 734.621 1653.92 734.949C1654.17 735.206 1654.41 735.475 1654.66 735.732C1656.31 737.508 1657.96 739.3 1659.6 741.104C1659.6 741.11 1659.61 741.111 1659.61 741.119C1661.25 742.919 1662.87 744.736 1664.49 746.565C1664.86 746.984 1665.22 747.402 1665.59 747.82C1665.74 747.996 1665.89 748.186 1666.04 748.36C1667.14 749.616 1668.23 750.867 1669.32 752.125C1669.92 752.842 1670.52 753.567 1671.13 754.283C1671.71 754.969 1672.29 755.642 1672.87 756.337C1673.27 756.805 1673.66 757.283 1674.05 757.756C1674.69 758.525 1675.32 759.303 1675.95 760.084C1676.87 761.211 1677.8 762.346 1678.71 763.482C1680.25 765.409 1681.78 767.347 1683.29 769.295C1683.35 769.367 1683.4 769.443 1683.46 769.516C1684.93 771.409 1686.38 773.316 1687.81 775.237C1688.37 775.987 1688.94 776.74 1689.49 777.496L1690.4 778.745C1691.05 779.637 1691.69 780.54 1692.32 781.43C1692.78 782.073 1693.26 782.717 1693.71 783.367C1695.09 785.318 1696.46 787.287 1697.78 789.25C1698.79 790.74 1699.8 792.261 1700.82 793.79C1717.76 819.343 1735.31 849.783 1750.46 877.492C1762.86 900.214 1774.85 923.153 1786.43 946.299C1788.37 950.167 1790.29 954.046 1792.19 957.933C1792.19 957.933 1793.72 957.187 1796.46 955.755C1810.29 948.48 1855.63 923.003 1897.94 880.943C1902.36 876.55 1906.53 871.896 1910.47 866.996C1918.34 857.203 1925.22 846.473 1931.04 835.039C1935.44 826.389 1939.2 817.434 1942.31 808.243C1945.48 798.923 1947.99 789.395 1949.84 779.727C1951.71 769.953 1952.92 760.062 1953.44 750.124C1953.61 746.789 1953.71 743.451 1953.74 740.111C1953.87 723.282 1951.99 706.498 1948.15 690.113C1946.59 683.503 1944.71 676.977 1942.49 670.558C1938.01 657.53 1932.15 645.018 1925.02 633.235C1915.72 617.903 1904.3 603.966 1891.1 591.839C1888.94 589.861 1886.75 587.923 1884.53 586.026C1883.8 585.405 1883.07 584.826 1882.33 584.216C1880.85 582.981 1879.36 581.733 1877.86 580.545C1876.97 579.848 1876.07 579.192 1875.19 578.515C1873.82 577.465 1872.45 576.414 1871.08 575.403C1870.11 574.703 1869.14 574.038 1868.18 573.36C1866.86 572.42 1865.55 571.487 1864.22 570.586C1863.2 569.905 1862.18 569.249 1861.16 568.582C1859.86 567.74 1858.57 566.89 1857.27 566.081C1856.21 565.427 1855.16 564.805 1854.11 564.176C1852.82 563.406 1851.54 562.629 1850.24 561.885C1849.16 561.273 1848.07 560.684 1846.98 560.087C1845.7 559.39 1844.43 558.678 1843.15 558.003C1842.04 557.423 1840.93 556.872 1839.82 556.313C1838.48 555.637 1837.13 554.967 1835.77 554.314L1835.77 554.314ZM1391.44 344.558C1390.84 344.84 1390.21 345.15 1389.51 345.49C1388.85 345.869 1388.16 346.213 1387.46 346.543C1386.75 346.955 1386.06 347.295 1385.36 347.632C1384.67 347.968 1384.03 348.283 1383.48 348.547C1382.9 348.833 1382.3 349.113 1381.66 349.431C1380.99 349.769 1380.3 350.082 1379.61 350.368C1378.94 350.705 1378.26 351.013 1377.56 351.291L1375.65 352.238L1376.66 354.356C1377.31 354.04 1377.93 353.81 1378.52 353.521C1379.06 353.384 1379.63 353.293 1380.12 353.298C1380.65 353.399 1381.12 353.601 1381.61 353.97C1382.04 354.368 1382.56 355.032 1382.99 355.923L1394.87 380.371C1395.33 381.313 1395.52 382.069 1395.57 382.663C1395.56 383.275 1395.45 383.818 1395.15 384.2C1394.9 384.694 1394.48 385.082 1393.98 385.32C1393.44 385.708 1392.85 386.003 1392.2 386.314L1393.24 388.441C1394.4 387.81 1395.74 387.157 1397.32 386.387C1398.77 385.619 1400.15 384.95 1401.34 384.372C1402.43 383.838 1403.67 383.241 1405.12 382.593C1406.5 381.919 1407.86 381.319 1409.04 380.751L1408 378.615C1407.32 378.954 1406.72 379.241 1406.18 379.384C1405.68 379.655 1405.1 379.744 1404.54 379.636C1403.99 379.603 1403.48 379.381 1403.08 379.008C1402.59 378.629 1402.14 377.984 1401.69 377.054L1389.81 352.612C1389.37 351.721 1389.11 350.927 1389.12 350.318C1389.09 349.76 1389.23 349.207 1389.5 348.72C1389.81 348.33 1390.17 347.968 1390.71 347.579C1391.21 347.34 1391.77 347.005 1392.47 346.671L1391.44 344.558ZM1370.07 355.047C1367.78 356.471 1365.34 357.849 1362.87 359.261C1360.34 360.698 1357.96 362.062 1355.67 363.362C1354.04 364.288 1352.42 365.199 1350.85 366.099C1349.25 367.033 1347.62 367.916 1345.96 368.748L1347.13 370.8C1348.11 370.305 1348.91 369.916 1349.57 369.653C1350.21 369.432 1350.74 369.375 1351.29 369.447C1351.73 369.56 1352.22 369.861 1352.69 370.348C1353.13 370.92 1353.64 371.703 1354.21 372.711L1365.99 393.419C1366.69 394.657 1367.19 395.643 1367.55 396.385C1367.89 397.203 1368 397.964 1367.93 398.511C1367.89 398.816 1367.8 399.111 1367.65 399.379C1367.5 399.647 1367.3 399.883 1367.06 400.074C1366.52 400.569 1365.74 401.087 1364.68 401.678L1365.85 403.728C1367.57 402.645 1369.32 401.609 1371.09 400.62C1372.81 399.642 1374.57 398.642 1376.38 397.612C1378.78 396.251 1381.16 394.892 1383.57 393.58C1385.96 392.227 1388.37 390.915 1390.76 389.558C1390.15 388.166 1389.6 386.752 1389.1 385.318C1388.57 383.95 1388.08 382.564 1387.63 381.164L1385.66 382.039C1385.78 383.359 1385.81 384.406 1385.71 385.228C1385.62 386.166 1385.4 386.916 1385.02 387.579C1384.67 388.284 1384.11 388.856 1383.39 389.386C1382.71 389.963 1381.79 390.566 1380.74 391.154L1378.21 392.588C1376.87 393.348 1375.77 393.418 1374.94 392.625C1374.04 391.933 1373.12 390.633 1372.09 388.816L1367.52 380.806L1370.49 379.117C1371.4 378.601 1372.23 378.184 1372.9 377.803C1373.58 377.549 1374.18 377.393 1374.79 377.363C1375.34 377.427 1375.89 377.621 1376.38 378.042C1376.89 378.501 1377.44 379.255 1378.02 380.259L1379.69 379.31C1379.23 378.498 1378.64 377.575 1377.99 376.544C1377.33 375.599 1376.82 374.695 1376.32 373.833C1376.04 373.343 1375.78 372.841 1375.54 372.327C1375.24 371.804 1374.93 371.278 1374.66 370.682C1374.38 370.208 1374.13 369.719 1373.9 369.217C1373.68 368.859 1373.48 368.484 1373.32 368.096L1371.65 369.046C1371.81 369.327 1371.92 369.647 1372.09 370.056C1372.24 370.542 1372.27 371.025 1372.25 371.545C1372.17 372.081 1371.99 372.634 1371.62 373.225C1371.22 373.838 1370.58 374.393 1369.67 374.909L1365.52 377.264L1358.85 365.521L1363.23 363.028C1364.18 362.503 1365.16 362.032 1366.17 361.618C1367.04 361.375 1367.88 361.207 1368.64 361.21C1369.39 361.303 1370.09 361.529 1370.8 361.896C1371.44 362.35 1372.1 362.97 1372.78 363.717L1374.32 362.536L1370.07 355.047ZM1336.15 381.321C1335.55 381.046 1334.93 380.822 1334.29 380.649C1332.92 380.395 1331.38 380.399 1329.62 380.745C1327.89 381.147 1325.94 382.104 1323.82 383.573C1322.38 384.576 1321.15 385.493 1320.11 386.207C1319.06 387.012 1318.16 387.635 1317.4 388.177C1316.27 388.953 1315.18 389.696 1314.06 390.409C1312.94 391.188 1311.76 392.002 1310.51 392.8L1311.86 394.741C1312.45 394.335 1313.02 394 1313.56 393.634C1314.07 393.406 1314.62 393.233 1315.11 393.167C1315.66 393.185 1316.14 393.31 1316.68 393.599C1317.34 394.069 1317.9 394.653 1318.35 395.323L1334.01 417.919C1334.48 418.604 1334.72 419.239 1334.82 419.775C1334.9 420.38 1334.86 420.879 1334.62 421.3C1334.41 421.831 1334.07 422.301 1333.63 422.667C1333.15 423.127 1332.64 423.55 1332.1 423.93L1333.44 425.874C1334.49 425.073 1335.57 424.327 1336.7 423.543C1337.75 422.749 1338.83 421.992 1339.92 421.244C1340.37 420.928 1341 420.483 1341.84 419.97C1342.61 419.433 1343.38 418.905 1344.19 418.343C1344.96 417.81 1345.68 417.307 1346.43 416.854L1347.88 415.847L1346.53 413.923C1345.99 414.304 1345.45 414.675 1344.94 414.895C1344.39 415.269 1343.89 415.415 1343.34 415.397C1342.79 415.48 1342.22 415.348 1341.75 415.027C1341.17 414.766 1340.64 414.191 1340.05 413.337L1332.98 403.146C1333.1 403.125 1333.24 403.029 1333.51 402.84C1333.56 402.806 1333.65 402.749 1333.74 402.684C1333.81 402.631 1333.88 402.563 1333.93 402.483L1351.55 409.98C1352.6 410.445 1353.75 410.443 1355.08 410.062C1356.33 409.658 1357.77 408.937 1359.31 407.873C1359.57 407.678 1359.93 407.43 1360.43 407.093C1360.88 406.773 1361.38 406.431 1361.95 406.091C1362.41 405.782 1362.89 405.437 1363.39 405.093C1363.84 404.777 1364.25 404.504 1364.52 404.317L1363.18 402.367C1362.01 403.185 1360.89 403.691 1359.67 403.868C1358.44 404.113 1357.24 404.015 1356.03 403.521L1339.85 397.05C1342.87 393.016 1342.94 388.884 1340.07 384.729C1339.4 383.811 1338.63 382.98 1337.75 382.258C1337.25 381.891 1336.72 381.576 1336.15 381.321ZM1329.92 386.291C1330.73 386.613 1331.47 387.069 1332.13 387.641C1332.84 388.283 1333.49 389.027 1334.08 389.885C1334.58 390.607 1335 391.384 1335.31 392.234C1335.62 393.156 1335.77 394.049 1335.74 394.88C1335.73 395.824 1335.46 396.683 1335.07 397.488C1334.6 398.345 1333.91 399.086 1332.96 399.739C1332.71 399.929 1332.45 400.092 1332.17 400.226C1331.9 400.426 1331.59 400.571 1331.26 400.655L1323.04 388.795C1323.53 388.251 1324.14 387.694 1324.95 387.125C1325.82 386.537 1326.7 386.187 1327.52 386.02C1328.36 385.973 1329.14 386.036 1329.92 386.291ZM1452.21 447.558C1450.06 449.857 1404.68 499.141 1372.26 582.365C1356.18 572.302 1340.64 561.418 1325.68 549.756L1317.61 560.116C1333.61 572.61 1350.28 584.233 1367.53 594.932C1365.35 601.043 1363.24 607.321 1361.23 613.76C1344.66 666.749 1333.49 736.578 1346.07 817.366C1320.32 806.335 1294.11 793.219 1267.6 777.722L1260.97 789.062C1277.66 798.814 1294.2 807.636 1310.62 815.613C1323.43 821.838 1336.14 827.497 1348.75 832.718C1352.69 853.425 1358.25 874.816 1365.64 896.773C1367.08 892.388 1369.02 888.181 1371.42 884.236C1372.35 882.716 1373.21 881.349 1374.07 880.028C1369.88 866.382 1366.31 852.553 1363.37 838.583C1369.08 840.792 1374.76 842.877 1380.42 844.902C1380.46 844.249 1380.41 843.603 1380.5 842.946C1381.05 839.242 1382.55 835.717 1384.7 832.487C1376.67 829.621 1368.59 826.597 1360.45 823.326C1346.23 741.695 1357.09 671.233 1373.59 618.208C1375.3 612.726 1377.12 607.276 1379.04 601.862C1389.88 608.203 1400.95 614.129 1412.24 619.627C1420.52 623.647 1428.72 627.303 1436.86 630.691C1436.74 630.406 1436.57 630.178 1436.46 629.877C1436.14 629.089 1435.9 628.275 1435.73 627.443C1435.47 626.143 1435.37 624.816 1435.44 623.493C1435.47 622.49 1435.59 621.492 1435.82 620.515C1436.07 619.386 1436.45 618.29 1436.96 617.249L1437.22 616.568L1437.26 616.505C1419.7 608.964 1401.81 599.998 1383.68 589.301C1415.42 506.969 1461.3 457.069 1461.81 456.52L1452.21 447.558ZM1310.88 407.685C1308.55 406.478 1306.04 405.671 1303.45 405.298C1300.91 405.023 1298.34 405.199 1295.85 405.817C1293.3 406.541 1290.93 407.813 1288.92 409.545C1286.62 411.516 1284.98 413.732 1283.93 416.227C1282.92 418.76 1282.38 421.33 1282.42 423.907C1282.45 426.54 1282.97 429.144 1283.95 431.588C1284.89 434.076 1286.26 436.379 1288 438.397C1289.74 440.442 1291.86 442.134 1294.24 443.382C1296.64 444.659 1299.07 445.459 1301.63 445.73C1304.19 446.122 1306.81 445.947 1309.3 445.215C1311.85 444.511 1314.21 443.25 1316.2 441.523C1318.45 439.588 1320.14 437.331 1321.19 434.841C1322.21 432.394 1322.71 429.762 1322.67 427.111C1322.63 424.475 1322.12 421.868 1321.18 419.407C1320.21 416.95 1318.84 414.672 1317.12 412.67C1315.38 410.625 1313.26 408.933 1310.88 407.685ZM1301.96 411.724C1303.24 412.378 1304.5 413.085 1305.73 413.841C1306.91 414.712 1308.09 415.655 1309.19 416.595C1310.22 417.535 1311.2 418.532 1312.12 419.58C1313.7 421.41 1314.9 423.215 1315.74 424.957C1316.62 426.816 1317.1 428.573 1317.21 430.223C1317.39 431.946 1317.16 433.528 1316.63 434.926C1316.05 436.435 1315.11 437.775 1313.88 438.822C1312.87 439.681 1311.82 440.223 1310.63 440.449C1309.44 440.742 1308.2 440.728 1306.97 440.484C1305.63 440.319 1304.32 439.916 1303.12 439.294C1301.8 438.715 1300.55 437.992 1299.39 437.14C1298.14 436.368 1296.98 435.471 1295.93 434.461C1294.87 433.546 1293.89 432.551 1292.99 431.486C1291.54 429.836 1290.33 427.996 1289.39 426.017C1288.59 424.382 1288.07 422.618 1287.88 420.806C1287.77 419.16 1287.92 417.57 1288.5 416.057C1289.04 414.652 1289.95 413.366 1291.24 412.253C1292.2 411.431 1293.3 410.921 1294.49 410.613C1295.67 410.392 1296.88 410.371 1298.16 410.499C1299.46 410.774 1300.74 411.186 1301.96 411.724ZM1254.03 415.971C1251.62 418.8 1249.09 421.516 1246.57 424.23C1243.99 427.005 1241.46 429.733 1238.88 432.507C1236.8 434.741 1234.61 437.082 1232.31 439.444C1229.94 441.979 1227.75 444.216 1225.73 446.392L1228.32 448.81C1229.5 447.653 1230.46 446.746 1231.31 446.071C1232.1 445.458 1232.86 445.139 1233.67 444.992C1234.37 444.968 1235.19 445.172 1236.08 445.664C1236.98 446.271 1238.06 447.174 1239.33 448.355L1265.51 472.715C1267.07 474.172 1268.22 475.367 1269.06 476.267C1269.92 477.284 1270.42 478.323 1270.57 479.133C1270.72 480.065 1270.58 480.936 1270.03 481.775C1269.47 482.733 1268.58 483.807 1267.34 485.133L1269.94 487.548C1271.25 486.035 1272.6 484.548 1273.97 483.088C1275.2 481.644 1276.5 480.26 1277.79 478.873C1278.41 478.21 1279.2 477.366 1280.1 476.397C1281 475.438 1281.89 474.469 1282.96 473.436C1283.86 472.47 1284.82 471.446 1285.77 470.539C1286.67 469.571 1287.45 468.725 1288.13 468.002L1285.54 465.587C1284.75 466.437 1284.08 467.155 1283.4 467.645C1282.72 468.368 1282.04 468.751 1281.23 468.894C1280.54 469.152 1279.66 469.126 1278.83 468.802C1277.94 468.543 1276.99 467.875 1275.85 466.809L1262.04 453.943L1266.36 449.307C1267.59 447.978 1268.67 447.065 1269.52 446.386C1270.37 445.831 1271.12 445.509 1271.87 445.426C1272.57 445.401 1273.29 445.61 1274.06 445.992C1274.83 446.488 1275.78 447.034 1276.86 447.702L1278.83 445.592C1277.87 444.922 1276.78 444.016 1275.46 442.787C1274.13 441.666 1272.98 440.601 1271.9 439.598C1271.35 439.083 1270.76 438.53 1270.09 437.79C1269.42 437.171 1268.76 436.565 1268.15 435.883C1267.54 435.332 1266.95 434.75 1266.4 434.141C1265.91 433.69 1265.49 433.297 1265.25 432.947L1263.12 435.253C1263.86 436.387 1264.41 437.237 1264.72 437.871C1265.1 438.675 1265.24 439.374 1265.21 440.016C1265.18 440.775 1264.84 441.484 1264.23 442.266C1263.68 443.103 1262.79 444.181 1261.67 445.382L1257.57 449.801L1242.74 435.983L1247.96 430.358C1249.31 428.916 1250.61 427.759 1251.74 426.785C1252.93 425.981 1254.07 425.365 1255.11 424.972C1256.15 424.703 1257.2 424.675 1258.26 424.871C1259.32 425.181 1260.33 425.664 1261.41 426.443L1263.29 423.927L1254.03 415.971ZM1224.76 478.872C1223.42 480.952 1222 482.977 1220.57 484.986C1219.11 487.048 1217.68 489.068 1216.22 491.125C1215.04 492.787 1213.81 494.536 1212.49 496.309C1211.16 498.189 1209.9 499.861 1208.77 501.469L1210.69 502.829C1211.38 501.959 1211.92 501.281 1212.43 500.766C1212.9 500.29 1213.37 500.017 1213.89 499.844C1214.35 499.768 1214.91 499.831 1215.53 500.077C1216.18 500.407 1216.98 500.889 1217.92 501.555L1237.37 515.337C1238.54 516.156 1239.4 516.833 1240.05 517.35C1240.7 517.948 1241.12 518.595 1241.29 519.12C1241.49 519.709 1241.44 520.35 1241.17 520.907C1240.9 521.585 1240.39 522.377 1239.7 523.367L1241.62 524.734C1242.33 523.623 1243.13 522.514 1243.89 521.434C1244.58 520.367 1245.31 519.335 1246.04 518.297C1246.4 517.809 1246.83 517.191 1247.35 516.468C1247.85 515.751 1248.35 515.024 1248.98 514.248C1249.48 513.536 1250.02 512.769 1250.57 512.082C1251.08 511.368 1251.52 510.746 1251.91 510.206L1249.98 508.835C1249.54 509.477 1249.16 510.015 1248.75 510.39C1248.44 510.874 1247.97 511.234 1247.42 511.409C1246.92 511.644 1246.36 511.694 1245.83 511.549C1245.23 511.462 1244.55 511.108 1243.69 510.508L1233.42 503.238L1235.87 499.79C1236.42 499.006 1237.03 498.267 1237.69 497.58C1238.21 497.135 1238.68 496.86 1239.17 496.736C1239.63 496.659 1240.11 496.734 1240.66 496.92C1241.21 497.176 1241.89 497.455 1242.66 497.799L1243.77 496.237C1242.91 495.773 1242.09 495.255 1241.3 494.685C1240.33 494.068 1239.47 493.459 1238.67 492.887C1238.2 492.565 1237.74 492.224 1237.3 491.863C1236.81 491.507 1236.32 491.16 1235.86 490.77C1235.41 490.459 1234.97 490.126 1234.55 489.772C1234.24 489.568 1233.95 489.337 1233.68 489.083L1232.48 490.791C1233.07 491.477 1233.51 491.997 1233.77 492.386C1234.09 492.882 1234.25 493.329 1234.28 493.751C1234.33 494.255 1234.17 494.756 1233.83 495.327C1233.54 495.923 1233.06 496.72 1232.42 497.623L1230.1 500.894L1219.08 493.079L1222.02 488.918C1222.79 487.85 1223.54 486.954 1224.21 486.211C1224.92 485.575 1225.63 485.076 1226.28 484.724C1226.94 484.452 1227.63 484.333 1228.35 484.359C1229.07 484.474 1229.78 484.715 1230.56 485.129L1231.59 483.302L1224.76 478.872ZM1556.55 667.997C1552.38 665.967 1549.77 665.153 1548.33 664.83L1534.51 661.752C1529.39 660.762 1524.26 659.853 1519.12 659.027C1517.63 660.174 1516.82 660.857 1516.82 660.857C1506.99 667.214 1395.73 739.078 1390.23 742.901C1379.21 750.587 1385.44 768.398 1392.88 770.216C1402.89 772.671 1411.23 774.7 1420.18 784.881C1420.18 784.881 1414.57 792.952 1406.35 799.308C1400.4 803.898 1394.72 809.932 1398.34 817.246C1399.47 819.518 1411.06 829.696 1411.06 829.696C1411.06 829.696 1405.57 831.882 1401.21 834.589C1394.83 838.564 1390.37 846.484 1396.35 853.297C1399.82 857.254 1401.96 861.713 1401.96 861.713C1397.09 872.111 1392.15 875.844 1382.75 891.178C1373.31 906.589 1369.94 932.144 1398.35 943.288C1427.41 954.685 1439.73 959.311 1452.51 964.684C1467.81 971.11 1468.22 984.767 1465.77 998.937C1454.34 1064.98 1494.29 1163.3 1494.29 1163.3L1647.75 1128.54C1645.99 1122.59 1641.61 1116.03 1630.89 1101.11C1600.63 1058.97 1604.99 1023.68 1610.06 982.82L1610.47 979.581C1611.11 974.352 1611.8 968.805 1612.47 962.886C1615.02 940.271 1610.36 932.575 1597.92 911.991C1595.49 907.989 1593.1 903.97 1590.73 899.934L1590.16 898.955C1583.48 887.527 1575.92 874.571 1568.39 859.313C1554.26 830.689 1547.84 785.136 1565.31 747.864C1573.41 730.585 1587.05 710.792 1597.65 696.197C1581.26 682.815 1566.69 672.918 1556.55 667.994L1556.55 667.997ZM1605.67 703.568C1595.39 717.747 1582.41 736.654 1574.81 752.884C1558.84 786.924 1564.8 828.712 1577.79 855.024C1585.16 869.948 1592.62 882.728 1599.2 894.003L1599.77 894.982C1602.35 899.393 1604.71 903.316 1606.88 906.889C1619.52 927.808 1625.86 938.309 1622.9 964.549C1622.24 970.513 1621.55 976.087 1620.9 981.349L1620.49 984.609C1615.5 1024.82 1611.57 1056.58 1639.38 1095.31C1651.06 1111.57 1656 1119.28 1658.03 1126.63L1677.13 1122.31C1674.63 1115.3 1669.46 1107.08 1658.77 1091.5C1631.32 1051.51 1635.24 1019.76 1640.21 979.568L1640.27 979.075C1640.9 973.937 1641.58 968.492 1642.23 962.681C1645.21 936.268 1635.73 920.029 1618.52 890.563C1611.74 878.928 1604.04 865.748 1596.42 850.3C1579.75 816.511 1580.09 780.82 1597.42 749.815C1605.03 736.209 1612.68 724.656 1619.11 715.519C1614.7 711.454 1610.22 707.471 1605.67 703.568ZM1221.81 517.506C1219.49 516.151 1216.93 515.251 1214.27 514.852C1211.69 514.481 1209.06 514.543 1206.49 515.038C1204 515.612 1201.63 516.623 1199.49 518.025C1197.31 519.549 1195.49 521.529 1194.16 523.826C1192.64 526.438 1191.81 529.071 1191.65 531.766C1191.53 534.497 1191.86 537.093 1192.75 539.517C1193.64 541.987 1194.98 544.27 1196.7 546.254C1198.41 548.295 1200.46 550.018 1202.77 551.344C1205.08 552.71 1207.64 553.612 1210.3 553.998C1212.98 554.416 1215.54 554.381 1218.04 553.798C1220.59 553.325 1223 552.296 1225.11 550.784C1227.22 549.341 1229.04 547.404 1230.41 545.03C1231.9 542.458 1232.76 539.792 1232.92 537.093C1233.08 534.45 1232.69 531.803 1231.78 529.32C1230.88 526.844 1229.55 524.547 1227.85 522.532C1226.13 520.533 1224.09 518.834 1221.81 517.506ZM1627.01 722.95C1619.73 733.298 1612.98 744.011 1606.8 755.047C1591.24 782.874 1590.97 815.02 1606.04 845.543C1613.5 860.655 1621.09 873.668 1627.8 885.146C1644.94 914.527 1656.27 933.931 1652.89 963.88C1652.23 969.734 1651.56 975.215 1650.92 980.38L1650.86 980.88C1645.8 1021.77 1642.46 1048.79 1667.61 1085.43C1679.11 1102.18 1684.85 1111.35 1687.64 1119.92L1706.2 1115.72C1703.5 1108.34 1698.65 1099.97 1689.97 1087.15C1667.02 1053.25 1663.18 1036.86 1668.37 994.846C1669.18 988.301 1671.84 966.526 1672.28 960.897C1673.92 939.355 1667.75 918.842 1650.97 890.105L1647.82 884.729C1641.18 873.428 1632.91 859.359 1626.54 846.431C1614.05 821.14 1604.03 793.049 1629.95 752.365C1634 746.016 1637.38 740.734 1640.31 736.21C1635.88 731.636 1631.44 727.207 1627 722.953L1627.01 722.95ZM1215.62 523.824C1216.9 524.369 1218.15 524.987 1219.36 525.676C1221.44 526.887 1223.17 528.198 1224.53 529.561C1225.97 531.033 1227.01 532.523 1227.65 534.037C1228.39 535.607 1228.69 537.178 1228.64 538.677C1228.59 540.297 1228.15 541.824 1227.33 543.251C1226.67 544.385 1225.85 545.254 1224.8 545.853C1223.76 546.52 1222.59 546.943 1221.36 547.09C1220.04 547.383 1218.67 547.431 1217.33 547.231C1215.9 547.123 1214.48 546.855 1213.11 546.431C1211.68 546.107 1210.29 545.641 1208.96 545.041C1207.66 544.519 1206.41 543.901 1205.21 543.192C1203.17 542.001 1201.45 540.695 1200.02 539.226C1198.72 537.947 1197.66 536.453 1196.87 534.81C1196.23 533.288 1195.85 531.735 1195.91 530.117C1195.95 528.617 1196.39 527.094 1197.25 525.611C1197.88 524.525 1198.73 523.697 1199.76 523.021C1200.83 522.413 1201.99 521.967 1203.19 521.696C1204.43 521.526 1205.79 521.495 1207.18 521.608C1208.61 521.802 1210.03 522.051 1211.44 522.355C1212.85 522.795 1214.24 523.287 1215.62 523.831L1215.62 523.824ZM1647.92 744.233C1645.33 748.238 1642.38 752.819 1639 758.129C1616.03 794.184 1624.12 817.301 1636.16 841.679C1642.36 854.257 1650.53 868.134 1657.08 879.286L1660.24 884.698C1677.98 915.083 1684.78 938.109 1682.98 961.705C1682.54 967.566 1679.84 989.555 1679.02 996.156C1674.13 1035.77 1677.28 1049.26 1698.85 1081.12C1708.24 1094.99 1713.68 1104.41 1716.72 1113.34L1734.77 1109.25C1732 1101.84 1727.46 1093.59 1720.05 1082.64C1697.67 1049.6 1692.55 1036.65 1697.73 994.765C1698.53 988.272 1701.18 966.68 1701.59 961.187C1703.26 939.386 1695.33 912.242 1679.28 884.747L1677.42 881.564C1670.9 870.411 1661.97 855.141 1655.13 841.593C1639.28 810.187 1635.74 795.401 1659.58 757.245C1655.77 752.837 1651.88 748.498 1647.92 744.233ZM1517.64 685.199C1536.08 699.072 1542.32 730.039 1542.32 730.039C1527.98 708.642 1500.93 692.584 1500.93 692.584L1517.64 685.199ZM1666.86 765.893C1647.14 798.344 1650.93 809.452 1664.71 836.742C1671.4 849.996 1680.24 865.103 1686.69 876.134L1688.55 879.331C1705.69 908.687 1714.13 938.047 1712.3 961.999C1711.88 967.566 1709.42 987.679 1708.39 996.066C1703.59 1034.87 1707.7 1045.27 1728.93 1076.63C1737.28 1088.95 1742.31 1098.33 1745.33 1106.86L1762.03 1103.08C1758.62 1094.25 1753.51 1084.98 1746.36 1074.42C1723.32 1040.39 1721.44 1032.79 1726.34 993.129C1727.13 986.763 1729.73 965.564 1730.15 960.101C1732.03 935.278 1718.74 899.719 1705.59 877.189C1701.5 870.184 1696.44 861.039 1691.08 851.358C1688.05 845.87 1685 840.391 1681.93 834.922C1667.95 810.03 1666.9 799.521 1677.64 779.556C1674.14 774.928 1670.55 770.373 1666.86 765.893ZM1684.72 789.238C1678.1 803.485 1680.77 810.95 1691.29 829.664C1694.24 834.924 1697.37 840.562 1700.46 846.145C1705.8 855.778 1710.83 864.876 1714.86 871.774C1728.83 895.698 1742.91 933.799 1740.85 960.917C1740.42 966.447 1738.01 986.204 1737 994.445C1732.4 1031.6 1733.6 1036.44 1755.25 1068.4C1763.16 1080.09 1768.83 1090.59 1772.57 1100.69L1789.13 1096.94C1787.63 1092.91 1786.52 1088.75 1785.8 1084.51C1782.35 1076.78 1778.24 1069.36 1773.52 1062.33C1750.99 1029.04 1749.94 1024.69 1754.87 984.804L1755.07 983.205C1757.29 965.364 1758.44 954.642 1758.48 951.363C1758.73 932.248 1752.1 906.548 1741.36 883.284C1725.33 853.935 1706.6 821.461 1688.89 795.255C1687.52 793.235 1686.13 791.229 1684.72 789.238ZM1508.98 712.039C1522.59 719.57 1535.92 737.616 1535.92 737.616C1525.43 736.967 1496.75 740.603 1501.22 739.241L1508.98 712.039ZM1175.66 563.949L1174.28 563.396C1174.13 563.806 1173.96 564.221 1173.79 564.631C1173.64 565.156 1173.46 565.608 1173.28 566.072L1172.73 567.447C1172.58 567.977 1172.41 568.389 1172.29 568.698C1171.88 569.719 1171.45 570.773 1170.95 571.877C1170.46 573.103 1170.04 574.181 1169.6 575.128L1170.97 575.667C1171.34 574.729 1171.78 573.822 1172.3 572.958C1172.66 572.51 1173.24 572.379 1174 572.691C1174.31 572.804 1174.62 573.052 1174.88 573.28C1175.21 573.643 1175.5 573.938 1175.73 574.265C1176.01 574.616 1176.21 574.998 1176.44 575.318C1176.69 575.723 1176.86 576.019 1177.03 576.2L1183.37 585.488L1171.27 587.919C1170.46 588.11 1169.64 588.236 1168.82 588.298C1168.12 588.427 1167.6 588.395 1167.25 588.253C1166.99 588.153 1166.82 587.97 1166.72 587.628C1166.7 587.334 1166.7 587.039 1166.72 586.745C1166.79 586.411 1166.86 586.091 1166.95 585.714C1167.08 585.413 1167.17 585.156 1167.26 584.951L1165.88 584.399C1165.46 585.468 1165.02 586.712 1164.47 588.094C1163.95 589.539 1163.46 590.765 1163.05 591.778C1162.8 592.389 1162.52 593.098 1162.2 593.92C1161.85 594.778 1161.51 595.602 1161.14 596.396C1160.81 597.21 1160.51 597.975 1160.22 598.571C1159.93 599.279 1159.75 599.748 1159.66 599.946L1161.04 600.499C1161.41 599.878 1161.69 599.332 1161.94 598.845C1162.2 598.48 1162.47 598.11 1162.72 597.79C1163.04 597.573 1163.37 597.345 1163.74 597.143C1164.15 597.008 1164.68 596.868 1165.33 596.716L1185.58 592.347L1197.15 596.967C1198.12 597.354 1198.76 597.805 1199.19 598.208C1199.6 598.667 1199.89 599.138 1199.93 599.625C1200.07 600.15 1200.02 600.72 1199.82 601.228C1199.68 601.882 1199.43 602.499 1199.16 603.16L1201.36 604.034C1201.6 603.42 1201.87 602.763 1202.16 602.046C1202.39 601.334 1202.65 600.631 1202.94 599.941C1203.17 599.2 1203.44 598.539 1203.72 597.829C1203.99 597.161 1204.23 596.548 1204.48 595.935C1204.7 595.381 1204.97 594.719 1205.25 594.007C1205.53 593.29 1205.83 592.579 1206.18 591.827C1206.47 591.119 1206.76 590.399 1207.09 589.713C1207.37 588.995 1207.65 588.339 1207.88 587.725L1205.69 586.847C1205.41 587.566 1205.17 588.175 1204.86 588.641C1204.62 589.254 1204.27 589.653 1203.81 589.934C1203.39 590.284 1202.85 590.472 1202.3 590.464C1201.68 590.512 1200.94 590.32 1199.97 589.936L1187.53 584.965L1177.07 569.42C1176.78 569.006 1176.5 568.58 1176.23 568.142C1176.03 567.767 1175.8 567.314 1175.63 566.843C1175.49 566.38 1175.41 565.903 1175.37 565.42C1175.37 564.915 1175.47 564.415 1175.66 563.949ZM1167.11 607.194L1157.47 604.146L1156.78 606.514C1157.06 606.716 1157.17 607.1 1157.16 607.549C1157.12 608.058 1156.96 608.76 1156.68 609.705L1150.67 629.924C1150.35 630.974 1150.15 631.655 1149.95 631.942C1149.79 632.292 1149.5 632.495 1149.03 632.526L1148.34 634.842L1157.97 637.876L1158.62 635.719C1157.83 635.264 1157.1 634.873 1156.53 634.471C1155.98 634.203 1155.51 633.806 1155.15 633.313C1154.88 632.901 1154.76 632.332 1154.73 631.645C1154.76 630.97 1154.93 630.042 1155.29 628.825L1156.47 624.828L1184.84 633.266C1185.85 633.573 1186.53 633.942 1186.99 634.308C1187.44 634.733 1187.77 635.17 1187.85 635.652C1188.04 636.165 1188.05 636.746 1187.89 637.273C1187.81 637.942 1187.62 638.567 1187.42 639.252L1189.67 639.921C1190.06 638.454 1190.48 636.993 1190.92 635.539C1191.34 633.941 1191.78 632.466 1192.16 631.207C1192.5 630.049 1192.89 628.732 1193.4 627.228C1193.84 625.746 1194.32 624.345 1194.69 623.081L1192.43 622.406C1192.21 623.146 1192.03 623.77 1191.76 624.266C1191.57 624.899 1191.28 625.326 1190.84 625.651C1190.44 626.036 1189.93 626.271 1189.38 626.313C1188.77 626.415 1188 626.292 1187.01 625.999L1158.64 617.561L1160.16 612.456C1160.48 611.402 1160.82 610.649 1161.21 610.079C1161.65 609.581 1162.1 609.2 1162.61 609.009C1163.17 608.887 1163.77 608.835 1164.37 608.898C1165.02 609.04 1165.72 609.183 1166.46 609.404L1167.11 607.194ZM1850.82 946.641L1831.88 985.606C1828.21 993.17 1827.16 1001.29 1828.01 1009.65C1828.19 1011.46 1828.46 1013.27 1828.82 1015.1C1829.16 1016.87 1829.58 1018.64 1830.07 1020.41C1811.26 1028.72 1801.94 1047.17 1801.32 1048.42C1792.3 1066.97 1794.32 1088.12 1804.72 1104.25C1809.93 1112.34 1817.23 1119.2 1826.38 1123.77L1826.96 1124.06C1841.64 1131.19 1858.4 1131.8 1873.07 1127.2L1901.16 1114.95L1902.28 1114.47L1903.2 1114.06L1905.74 1112.96L1906.43 1115.63L1906.67 1116.55L1906.99 1117.78L1914.72 1147.42C1917.44 1154.58 1921.42 1161.19 1926.47 1166.95C1928.84 1169.66 1931.45 1172.15 1934.26 1174.41C1937.75 1177.23 1941.54 1179.73 1945.68 1181.74L1946.27 1182.03C1948.29 1182.97 1950.37 1183.78 1952.49 1184.46C1956.2 1185.69 1960.05 1186.52 1963.94 1186.92C1971.2 1187.69 1978.54 1187.03 1985.55 1184.98C2000.49 1180.64 2013.68 1170.24 2021 1155.15C2021.58 1153.97 2029.4 1137.18 2025.97 1118.52C2027.69 1117.92 2029.38 1117.24 2031.03 1116.48C2032.77 1115.67 2034.41 1114.79 2035.93 1113.83C2040.61 1110.89 2044.25 1107.23 2046.46 1102.68L2070.43 1053.35C2029.84 1090.23 1935.67 1048.09 1937.51 1049.08L1936.4 1048.54C1940.89 1050.65 1846.89 1001.49 1850.81 946.64L1850.82 946.641ZM1187.54 648.115L1185.24 647.584C1185.07 648.339 1184.93 648.983 1184.69 649.494C1184.55 650.133 1184.28 650.578 1183.86 650.931C1183.49 651.345 1182.99 651.612 1182.44 651.68C1181.85 651.825 1181.07 651.763 1180.06 651.539L1153.57 645.501C1152.6 645.276 1151.83 644.995 1151.35 644.604C1150.87 644.265 1150.57 643.8 1150.35 643.301C1150.23 642.756 1150.19 642.196 1150.23 641.639C1150.35 641.102 1150.43 640.448 1150.61 639.698L1148.31 639.176C1148.16 639.815 1148.01 640.513 1147.83 641.269C1147.71 642.028 1147.55 642.772 1147.38 643.521C1147.25 644.335 1147.07 645.086 1146.9 645.838C1146.73 646.59 1146.57 647.286 1146.43 647.871C1146.29 648.52 1146.15 649.159 1145.99 649.85C1145.82 650.598 1145.67 651.296 1145.44 652.034C1145.27 652.784 1145.09 653.535 1144.88 654.212C1144.71 654.964 1144.56 655.663 1144.4 656.305L1146.71 656.831C1146.87 656.142 1147.07 655.509 1147.21 654.869C1147.44 654.357 1147.72 653.85 1148.03 653.464C1148.46 653.118 1148.91 652.889 1149.5 652.741C1150.09 652.651 1150.92 652.664 1151.89 652.887L1178.37 658.92C1179.39 659.154 1180.11 659.481 1180.59 659.817C1181.06 660.209 1181.42 660.63 1181.54 661.108C1181.76 661.608 1181.81 662.176 1181.67 662.71C1181.64 663.377 1181.49 664.025 1181.33 664.721L1183.64 665.246C1183.93 663.754 1184.25 662.268 1184.59 660.789C1184.9 659.171 1185.25 657.67 1185.54 656.392C1185.81 655.208 1186.11 653.873 1186.53 652.336C1186.86 650.833 1187.25 649.396 1187.54 648.115ZM1767.92 933.515C1768.82 939.687 1769.29 945.747 1769.21 951.505C1769.15 956.417 1767.31 971.726 1765.71 984.526L1765.53 986.118C1760.93 1023.3 1761.4 1025.27 1782.41 1056.3C1783.4 1057.77 1784.6 1059.63 1785.88 1061.72C1786.96 1055.48 1788.91 1049.42 1791.67 1043.72L1792.36 1042.3C1776.88 1019 1777.7 1010.15 1782.58 980.529L1783.18 976.894C1783.48 975.096 1783.97 971.177 1784.49 966.665L1782.53 962.624C1782.36 962.287 1776.82 950.894 1767.92 933.516L1767.92 933.515ZM1175.17 667.284C1174.22 666.911 1173.23 666.645 1172.22 666.491C1169.84 666.098 1167.86 666.288 1166.21 666.909C1164.63 667.578 1163.18 668.51 1161.92 669.666C1160.72 670.912 1159.64 672.267 1158.7 673.714C1157.84 675.129 1156.88 676.479 1155.83 677.751C1154.9 679.045 1153.84 680.048 1152.67 680.749C1151.55 681.514 1150.11 681.732 1148.43 681.461C1146.86 681.203 1145.63 680.269 1144.77 678.693C1143.96 677.168 1143.71 675.236 1144.08 672.968C1144.4 671.013 1145.04 669.445 1145.96 668.205C1146.93 667.026 1148.55 666.281 1150.72 665.965L1150.93 663.998L1142.65 663.272C1142.4 664.79 1142.03 666.398 1141.55 667.993C1141.11 669.706 1140.73 671.366 1140.46 672.989C1140.13 674.999 1140.06 676.814 1140.13 678.497C1140.29 680.255 1140.66 681.758 1141.33 683.092C1142.01 684.428 1143 685.53 1144.3 686.411C1145.65 687.351 1147.39 687.966 1149.45 688.3C1151.95 688.701 1153.97 688.577 1155.62 687.957C1157.28 687.332 1158.76 686.465 1159.95 685.264C1161.2 684.13 1162.29 682.863 1163.19 681.444C1164.14 680.038 1165.07 678.743 1165.99 677.502C1166.88 676.4 1167.94 675.444 1169.12 674.67C1170.24 673.96 1171.6 673.739 1173.23 673.997C1174.17 674.129 1175.05 674.523 1175.77 675.133C1176.45 675.747 1177.01 676.451 1177.32 677.276C1177.68 678.173 1177.86 679.089 1177.92 680.101C1177.96 681.167 1177.91 682.226 1177.76 683.199C1177.39 685.468 1176.47 687.377 1174.9 688.853C1173.42 690.388 1171.39 691.232 1168.88 691.277L1168.73 693.242L1177.74 693.981C1177.95 693.352 1178.28 692.62 1178.65 691.728C1179 690.899 1179.32 690.001 1179.71 689.015C1180.04 688.01 1180.37 687.002 1180.69 685.992C1180.98 685.006 1181.22 684.006 1181.4 682.994C1181.7 681.116 1181.81 679.211 1181.71 677.311C1181.59 675.6 1181.18 673.922 1180.51 672.343C1179.82 670.844 1178.77 669.543 1177.45 668.562C1176.75 668.035 1175.98 667.605 1175.17 667.285L1175.17 667.284ZM1178.1 697.032L1175.74 696.862C1175.64 698.287 1175.33 699.465 1174.7 700.526C1174.13 701.64 1173.3 702.519 1172.15 703.148L1156.94 711.663C1155.69 706.785 1152.54 704.134 1147.49 703.762C1146.51 703.694 1145.35 703.771 1144.12 704.016C1142.94 704.317 1141.8 704.884 1140.69 705.681C1139.63 706.602 1138.67 707.806 1137.84 709.389C1137.07 710.988 1136.57 713.096 1136.38 715.672C1136.25 717.419 1136.2 718.963 1136.11 720.229C1136.07 721.544 1135.98 722.63 1135.92 723.565C1135.82 724.936 1135.71 726.25 1135.56 727.56C1135.46 728.932 1135.37 730.355 1135.2 731.831L1137.56 732.002C1137.61 731.293 1137.71 730.632 1137.76 729.975C1137.91 729.441 1138.11 728.903 1138.36 728.474C1138.72 728.066 1139.13 727.766 1139.7 727.535C1140.26 727.353 1141.1 727.25 1142.09 727.314L1169.51 729.327C1170.32 729.382 1170.98 729.595 1171.46 729.85C1171.99 730.164 1172.34 730.529 1172.53 730.986C1172.82 731.503 1172.93 732.058 1172.95 732.602C1173.02 733.272 1173.02 733.931 1172.98 734.591L1175.33 734.758C1175.37 733.443 1175.47 732.131 1175.56 730.763C1175.61 729.437 1175.71 728.132 1175.81 726.817C1175.85 726.266 1175.9 725.497 1176.02 724.513C1176.1 723.568 1176.17 722.623 1176.23 721.678C1176.31 720.744 1176.38 719.861 1176.49 718.987C1176.55 718.222 1176.59 717.619 1176.62 717.238L1174.27 717.061C1174.22 717.725 1174.16 718.376 1174.02 718.91C1173.96 719.582 1173.77 720.061 1173.4 720.471C1173.12 720.96 1172.66 721.32 1172.12 721.472C1171.55 721.761 1170.78 721.824 1169.74 721.749L1157.37 720.839C1157.43 720.73 1157.44 720.57 1157.47 720.238C1157.47 720.149 1157.48 720.059 1157.48 719.97C1157.49 719.875 1157.48 719.779 1157.45 719.689L1174.35 710.691C1175.37 710.16 1176.1 709.278 1176.63 707.992C1177.12 706.763 1177.44 705.186 1177.59 703.328C1177.6 702.997 1177.64 702.563 1177.69 701.957C1177.72 701.354 1177.78 700.752 1177.87 700.154C1177.91 699.609 1177.96 699.007 1178 698.407C1178.03 697.948 1178.06 697.49 1178.1 697.032ZM1839.85 1043.28C1843.92 1050.52 1848.75 1057.62 1853.9 1064.38C1850.73 1066.8 1847.76 1070.4 1845.55 1074.87C1843.43 1079.13 1842.37 1083.5 1842.27 1087.38C1832.98 1076.72 1830.49 1061.1 1837.21 1047.66C1837.99 1046.11 1838.89 1044.67 1839.85 1043.28ZM2000.61 1123.55C2000.25 1124.54 1999.87 1125.51 1999.41 1126.47C1993 1140.06 1979.18 1147.76 1965.06 1147.05C1968.05 1144.57 1970.83 1141.03 1972.87 1136.73C1974.91 1132.46 1975.9 1128.13 1975.94 1124.28C1984.31 1124.46 1992.67 1124.27 2000.61 1123.55ZM1150.35 712.177C1151.2 712.482 1151.98 712.931 1152.67 713.504C1153.4 714.113 1153.9 714.863 1154.28 715.658C1154.65 716.562 1154.79 717.574 1154.71 718.722C1154.69 719.058 1154.66 719.328 1154.58 719.644C1154.56 720.031 1154.48 720.356 1154.34 720.621L1139.96 719.562C1139.83 718.725 1139.79 717.875 1139.86 717.03C1139.93 716.09 1140.18 715.172 1140.61 714.33C1141.07 713.661 1141.65 713.088 1142.33 712.641C1143.01 712.247 1143.87 711.92 1144.76 711.763C1145.71 711.616 1146.7 711.586 1147.74 711.661C1148.63 711.725 1149.51 711.899 1150.35 712.177ZM1175.43 737.723C1173.91 737.584 1172.41 737.389 1170.91 737.138C1169.48 736.938 1168.05 736.734 1166.57 736.441L1166.38 738.589C1167.6 739.114 1168.54 739.589 1169.21 740.067C1169.98 740.603 1170.55 741.146 1170.93 741.797C1171.38 742.452 1171.62 743.224 1171.75 744.102C1171.92 744.977 1172 746.068 1172.02 747.278L1172.06 750.186C1172.08 751.731 1171.61 752.729 1170.51 753.075C1169.48 753.531 1167.89 753.721 1165.8 753.758L1156.57 753.911L1156.52 750.5C1156.5 749.464 1156.54 748.519 1156.54 747.746C1156.61 747.099 1156.78 746.468 1157.05 745.875C1157.38 745.427 1157.81 745.034 1158.41 744.805C1159.06 744.581 1160 744.456 1161.15 744.44L1161.11 742.514C1160.18 742.529 1159.09 742.6 1157.89 742.673C1156.73 742.802 1155.68 742.83 1154.7 742.843C1154.21 742.851 1153.66 742.859 1153 742.815C1152.39 742.824 1151.78 742.831 1151.13 742.787C1150.57 742.796 1150.03 742.8 1149.47 742.758C1148.98 742.765 1148.54 742.779 1148.21 742.724L1148.25 744.654C1148.57 744.648 1148.9 744.686 1149.35 744.744C1149.84 744.846 1150.28 745.053 1150.73 745.32C1151.17 745.637 1151.56 746.08 1151.9 746.675C1152.24 747.322 1152.42 748.151 1152.44 749.194L1152.51 753.966L1139.01 754.194L1138.92 749.143C1138.92 748.057 1138.97 746.972 1139.09 745.894C1139.3 745.024 1139.56 744.188 1139.93 743.519C1140.37 742.907 1140.92 742.377 1141.55 741.952C1142.26 741.614 1143.14 741.322 1144.12 741.09L1143.81 739.168L1135.19 739.305C1135.33 742.085 1135.41 744.868 1135.44 747.652C1135.49 750.56 1135.54 753.319 1135.58 755.952C1135.6 757.82 1135.63 759.687 1135.66 761.5C1135.68 763.368 1135.72 765.182 1135.64 767.039L1138 767.01C1138.04 765.905 1138.08 765.026 1138.18 764.305C1138.25 763.726 1138.47 763.176 1138.82 762.705C1139.13 762.369 1139.62 762.093 1140.28 761.921C1140.99 761.798 1141.92 761.728 1143.08 761.709L1166.91 761.32C1168.34 761.293 1169.44 761.335 1170.27 761.38C1171.14 761.473 1171.86 761.73 1172.31 762.057C1172.82 762.417 1173.16 762.959 1173.26 763.568C1173.44 764.288 1173.51 765.226 1173.53 766.434L1175.88 766.391C1175.74 764.359 1175.72 762.33 1175.68 760.298C1175.64 758.32 1175.61 756.29 1175.58 754.203C1175.53 751.456 1175.5 748.71 1175.51 745.963C1175.46 743.215 1175.47 740.466 1175.43 737.723ZM1951.42 1122.85C1950.82 1123.83 1950.25 1124.85 1949.73 1125.92C1947.24 1131.16 1946.29 1136.49 1946.76 1140.89C1939.66 1136.11 1934.51 1128.94 1932.25 1120.68C1938.1 1121.47 1944.59 1122.22 1951.42 1122.85ZM1869.71 1083.18C1874.04 1087.9 1878.49 1092.49 1883.06 1096.97C1875.22 1100.21 1866.49 1100.56 1858.41 1097.97C1861.27 1096.18 1864.04 1093.41 1866.34 1089.89C1867.06 1088.79 1867.73 1087.62 1868.34 1086.38C1868.87 1085.32 1869.32 1084.25 1869.71 1083.18L1869.71 1083.18ZM1898.52 1127.82L1872.84 1139.01L1874.94 1174.33L1875.04 1176.11L1905.58 1154.92L1898.52 1127.82ZM1178.45 785.122L1141.11 775.179C1140.38 774.978 1139.72 774.495 1139.1 773.785C1138.51 773.08 1138.15 772.215 1138.07 771.302L1135.72 771.543C1135.87 772.409 1135.96 773.394 1136.08 774.538C1136.26 775.74 1136.37 776.778 1136.45 777.596C1136.56 778.686 1136.69 779.885 1136.77 781.199C1136.91 782.62 1137.04 783.818 1137.09 784.864L1139.44 784.62C1139.45 784.181 1139.46 783.743 1139.41 783.254C1139.48 782.803 1139.53 782.295 1139.6 781.848C1139.75 781.456 1139.97 781.096 1140.26 780.789C1140.56 780.541 1141.04 780.32 1141.58 780.267C1142.18 780.204 1142.74 780.258 1143.25 780.367L1165.36 785.529L1165.38 785.751L1143.5 796.682C1143.18 796.827 1142.86 796.921 1142.48 796.958C1141.93 797.004 1141.54 796.931 1141.23 796.626C1140.99 796.409 1140.82 796.121 1140.76 795.804C1140.65 795.413 1140.57 795.014 1140.53 794.612C1140.5 794.229 1140.44 793.85 1140.35 793.476L1138.01 793.717C1138.13 794.914 1138.31 796.224 1138.47 797.696C1138.68 799.219 1138.82 800.583 1138.94 801.732C1139.01 802.384 1139.09 803.098 1139.17 803.859C1139.24 804.625 1139.33 805.447 1139.35 806.212C1139.44 807.087 1139.52 807.853 1139.53 808.624C1139.62 809.395 1139.7 810.097 1139.76 810.751L1142.11 810.509C1142.04 809.741 1142.03 808.968 1142.09 808.199C1142.24 807.572 1142.41 806.994 1142.7 806.53C1143.06 806.035 1143.49 805.6 1143.99 805.24C1144.57 804.851 1145.23 804.451 1146.02 804.039L1178.69 787.521L1178.45 785.122ZM1984.27 1196.41C1975.13 1198.46 1965.65 1198.54 1956.48 1196.66C1942.74 1213.64 1916.82 1241.2 1879.18 1262.77C1826.27 1293.08 1738.74 1317.32 1622.13 1260.66L1463.81 1183.74L1435.7 1190.28L1623.52 1281.54C1830.67 1382.2 1957.59 1232.53 1984.27 1196.41ZM1180.18 807.29L1177.87 807.727C1178.02 808.487 1178.14 809.135 1178.12 809.698C1178.25 810.255 1178.18 810.839 1177.93 811.35C1177.75 811.871 1177.4 812.313 1176.93 812.595C1176.44 812.967 1175.7 813.213 1174.68 813.402L1147.95 818.391C1146.98 818.571 1146.15 818.608 1145.56 818.437C1144.97 818.321 1144.53 818.014 1144.12 817.645C1143.79 817.197 1143.53 816.7 1143.34 816.173C1143.24 815.63 1143.07 814.991 1142.94 814.243L1140.61 814.664L1141 816.772C1141.19 817.527 1141.33 818.274 1141.48 819.034C1141.68 819.821 1141.82 820.591 1141.97 821.35C1142.1 822.107 1142.24 822.807 1142.35 823.402C1142.47 824.048 1142.58 824.693 1142.72 825.388C1142.86 826.152 1142.99 826.86 1143.08 827.62C1143.22 828.376 1143.35 829.138 1143.43 829.851C1143.57 830.609 1143.71 831.303 1143.83 831.942L1146.14 831.521C1146.02 830.819 1145.95 830.154 1145.83 829.507C1145.83 828.968 1145.9 828.431 1146.03 827.909C1146.28 827.411 1146.59 827.018 1147.08 826.648C1147.58 826.325 1148.36 826.021 1149.33 825.842L1176.06 820.864C1177.09 820.674 1177.87 820.688 1178.46 820.798C1179.05 820.973 1179.54 821.216 1179.84 821.606C1180.24 821.978 1180.5 822.493 1180.6 823.026C1180.83 823.666 1180.95 824.304 1181.08 825.012L1183.4 824.568C1183.11 823.289 1182.83 821.834 1182.51 820.103C1182.16 818.49 1181.88 816.982 1181.64 815.691C1181.42 814.498 1181.16 813.138 1180.93 811.566C1180.64 810.053 1180.43 808.59 1180.18 807.29ZM1793.69 1106.82L1567.93 1159.46L1647.56 1198.15C1719.08 1232.9 1784.16 1233.46 1840.99 1199.83C1849.3 1194.89 1857.23 1189.34 1864.71 1183.22L1862.17 1140.33C1848.81 1141.85 1834.87 1139.84 1822.27 1133.72L1821.56 1133.38C1809.43 1127.31 1799.98 1117.92 1793.69 1106.82L1793.69 1106.82ZM1911.14 1164.13L1870.99 1191.98C1863.23 1198.27 1855.04 1203.98 1846.46 1209.08C1805.12 1233.54 1736.24 1253.18 1642.87 1207.81L1551.33 1163.33L1523.15 1169.89L1636.6 1225.02C1790.78 1299.93 1886.05 1214.99 1919.65 1175.38C1916.47 1171.91 1913.62 1168.14 1911.14 1164.13ZM1927.46 1182.74C1891.69 1224.63 1792.02 1312.48 1631.91 1234.68L1506.55 1173.77L1480.41 1179.86L1626.82 1251.01C1802.07 1336.16 1909.39 1236.74 1945.44 1193.35C1944.17 1192.86 1942.92 1192.32 1941.69 1191.75L1940.99 1191.4C1936.09 1189.03 1931.58 1186.09 1927.46 1182.74L1927.46 1182.74ZM1184.75 830.594L1153.35 838.787C1151.97 839.145 1150.87 839.314 1150.02 839.312C1149.34 839.314 1148.67 839.138 1148.07 838.801C1147.6 838.422 1147.22 837.936 1146.97 837.384C1146.71 836.698 1146.49 835.999 1146.31 835.292L1144.02 835.876C1144.3 836.948 1144.64 838.045 1144.98 839.323C1145.37 840.639 1145.68 841.811 1145.94 842.818C1146.27 844.095 1146.62 845.416 1146.96 846.92C1147.35 848.413 1147.7 849.795 1147.97 851.039L1150.25 850.437C1149.92 849.157 1149.73 848.01 1149.73 847.111C1149.77 846.19 1149.98 845.453 1150.38 844.837C1150.81 844.269 1151.42 843.779 1152.21 843.339C1153.02 842.957 1154.05 842.581 1155.33 842.251L1174.09 837.349L1152.16 868.218C1152.36 868.564 1152.55 869.025 1152.69 869.556C1152.94 870.116 1153.09 870.697 1153.24 871.279C1153.46 871.907 1153.63 872.544 1153.77 873.074C1153.97 873.641 1154.1 874.118 1154.18 874.439C1154.4 875.287 1154.64 876.202 1154.86 877.268C1155.16 878.388 1155.4 879.346 1155.55 880.16L1157.85 879.566C1157.25 877.282 1157.3 875.503 1157.97 874.195C1158.72 872.923 1160.28 871.941 1162.67 871.32L1183.46 865.895C1185.26 865.419 1186.63 865.24 1187.66 865.254C1188.7 865.323 1189.49 865.509 1190.03 865.877C1190.65 866.285 1191.08 866.856 1191.3 867.478C1191.6 868.195 1191.8 868.938 1192.01 869.742L1194.29 869.141C1193.93 867.984 1193.6 866.708 1193.21 865.222C1192.78 863.805 1192.44 862.471 1192.13 861.293C1191.83 860.125 1191.5 858.855 1191.16 857.352C1190.79 855.916 1190.5 854.571 1190.19 853.41L1187.9 854.005C1188.29 855.497 1188.47 856.639 1188.42 857.502C1188.42 858.411 1188.12 859.174 1187.54 859.783C1187.01 860.374 1186.12 860.886 1184.92 861.312C1183.8 861.78 1182.22 862.241 1180.3 862.739L1161.98 867.533L1185.7 834.209L1184.75 830.594ZM1406.74 960.858C1402.73 959.294 1398.37 957.587 1393.5 955.675C1391.86 955.032 1390.31 954.346 1388.83 953.631C1388.72 953.577 1388.64 953.518 1388.53 953.466C1399.3 976.322 1412.15 999.667 1427.47 1023.43L1438.5 1016.31C1426.94 998.406 1416.34 979.894 1406.74 960.858ZM1198 884.22C1196.86 883.518 1195.64 882.952 1194.37 882.534C1191.93 881.735 1189.14 881.442 1186.24 881.72C1183.25 882.076 1180.33 882.832 1177.54 883.967L1157.6 891.989C1155.55 892.834 1153.48 893.639 1151.39 894.404C1149.78 895.044 1148.39 895.34 1147.13 895.314C1146.09 895.374 1145.08 895.065 1144.29 894.413C1143.6 893.795 1142.88 892.669 1142.27 891.141L1138.98 892.46C1139.53 893.83 1140.19 895.262 1140.84 896.865C1141.59 898.51 1142.17 899.97 1142.7 901.269C1143.37 902.947 1144.08 904.701 1144.77 906.637C1145.51 908.442 1146.22 910.266 1146.87 912.105L1150.16 910.782C1149.56 909.073 1149.11 907.745 1148.86 906.685C1148.75 906.213 1148.74 905.724 1148.82 905.246C1148.9 904.769 1149.09 904.313 1149.35 903.908C1150 903.115 1151.18 902.294 1152.88 901.431C1155.36 900.315 1157.86 899.253 1160.39 898.245L1180.1 890.315C1181.82 889.637 1183.58 889.075 1185.37 888.631C1187.23 888.221 1189.13 888.116 1191.02 888.319C1192.89 888.54 1194.65 889.164 1196.14 890.247C1197.83 891.349 1199.06 893.071 1199.97 895.367C1200.83 897.502 1201.08 899.45 1200.71 901.197C1200.41 903.09 1199.57 904.76 1198.26 906.357C1197.02 907.917 1195.38 909.368 1193.25 910.677C1191.21 912.02 1188.83 913.159 1186.23 914.21L1162.17 923.878C1160.79 924.432 1159.59 924.741 1158.67 924.669C1157.78 924.668 1157.03 924.353 1156.32 923.923C1155.7 923.362 1155.17 922.71 1154.75 921.989C1154.44 921.226 1154 920.345 1153.56 919.272L1150.29 920.586C1150.66 921.506 1151.05 922.496 1151.48 923.565C1151.99 924.609 1152.42 925.675 1152.84 926.739C1153.38 927.851 1153.82 928.933 1154.24 929.999C1154.67 931.072 1155.07 932.055 1155.41 932.903C1155.77 933.818 1156.15 934.741 1156.54 935.735C1156.98 936.808 1157.37 937.793 1157.73 938.889C1158.16 939.958 1158.58 941.035 1158.9 942.06C1159.34 943.132 1159.73 944.119 1160.1 945.039L1163.39 943.718C1162.99 942.727 1162.7 941.78 1162.34 940.864C1162.18 940.068 1162.12 939.255 1162.16 938.444C1162.37 937.639 1162.77 936.898 1163.33 936.284C1163.97 935.674 1165.02 934.989 1166.4 934.432L1192.46 923.953C1199.8 920.999 1204.62 917.108 1206.91 912.201C1209.23 907.358 1209.14 901.618 1206.5 895.048C1205.12 891.609 1203.39 888.85 1201.31 886.753C1200.29 885.801 1199.18 884.952 1198 884.22ZM1223.29 937.199L1221.27 938.427C1221.45 938.706 1221.61 938.982 1221.79 939.383C1222.05 939.811 1222.25 940.269 1222.38 940.779C1222.56 941.303 1222.7 941.863 1222.72 942.424C1222.82 943.009 1222.75 943.626 1222.5 944.292L1215.41 967.583L1202.55 964.702C1200.77 964.3 1199.28 963.862 1198.06 963.442C1196.93 963.036 1196 962.566 1195.18 962.041C1194.48 961.611 1193.84 961.093 1193.28 960.501C1192.8 959.918 1192.36 959.301 1191.97 958.655L1189.94 959.878C1190.17 960.251 1190.48 960.765 1190.82 961.335C1191.26 961.963 1191.64 962.576 1192.04 963.233C1192.52 963.914 1192.91 964.567 1193.27 965.178C1193.68 965.839 1193.97 966.307 1194.18 966.684C1194.82 967.714 1195.41 968.71 1195.95 969.727C1196.58 970.759 1197.21 971.791 1197.75 972.811L1199.78 971.587C1199.41 970.974 1199.09 970.33 1198.75 969.76C1198.5 969.143 1198.52 968.759 1198.85 968.554C1199.04 968.445 1199.28 968.418 1199.68 968.429C1200.15 968.468 1200.61 968.513 1201.07 968.627C1201.62 968.675 1202.07 968.783 1202.5 968.854C1202.99 968.935 1203.37 969.03 1203.52 969.065L1217.91 972.166L1208.48 977.882C1207.63 978.389 1206.86 978.726 1206.25 978.774C1205.66 978.876 1205.19 978.833 1204.68 978.639C1204.26 978.42 1203.89 978.123 1203.58 977.764C1203.33 977.343 1203.02 976.942 1202.73 976.469L1200.71 977.697C1200.98 978.123 1201.25 978.589 1201.6 979.156C1201.98 979.69 1202.35 980.301 1202.72 980.91C1203.17 981.541 1203.54 982.154 1203.91 982.761C1204.3 983.425 1204.67 984.032 1204.98 984.546C1205.32 985.11 1205.67 985.674 1206.03 986.288C1206.43 986.946 1206.8 987.557 1207.15 988.243C1207.55 988.901 1207.95 989.56 1208.28 990.21L1209.38 992.03L1211.4 990.814C1211.03 990.202 1210.74 989.611 1210.4 989.046C1210.21 988.539 1210.08 988.01 1210.02 987.472C1210.07 986.927 1210.24 986.449 1210.57 985.932C1210.92 985.454 1211.54 984.884 1212.4 984.37L1235.66 970.291C1236.56 969.757 1237.29 969.498 1237.87 969.404C1238.49 969.347 1239.03 969.406 1239.45 969.675C1239.96 969.88 1240.39 970.263 1240.67 970.733C1241.11 971.241 1241.45 971.808 1241.82 972.415L1243.84 971.188C1243.11 970.089 1242.34 968.822 1241.43 967.324C1240.53 965.937 1239.74 964.625 1239.06 963.495C1238.77 963.019 1238.43 962.461 1238.08 961.771C1237.74 961.212 1237.38 960.59 1236.98 959.937C1236.62 959.361 1236.28 958.771 1235.97 958.167C1235.64 957.6 1235.34 957.131 1235.06 956.661L1233.04 957.889C1233.35 958.411 1233.63 958.873 1233.79 959.357C1234.07 959.79 1234.19 960.313 1234.11 960.825C1234.15 961.316 1233.91 961.781 1233.56 962.257C1233.24 962.774 1232.64 963.269 1231.75 963.806L1222.66 969.293L1228.74 950.022C1228.91 949.549 1229.02 949.053 1229.06 948.548C1229.06 948.119 1229.02 947.69 1228.94 947.269C1228.78 946.77 1228.59 946.283 1228.36 945.811C1228.08 945.344 1227.83 944.794 1227.43 944.136C1227.12 943.64 1226.81 943.142 1226.51 942.641C1226.14 942.024 1225.75 941.371 1225.33 940.665C1224.93 940.008 1224.55 939.385 1224.2 938.706C1223.83 938.094 1223.52 937.581 1223.29 937.202L1223.29 937.199ZM1251.23 981.518C1249.51 980.601 1247.81 980.08 1246.03 979.978C1244.19 979.907 1242.36 980.208 1240.64 980.863C1238.78 981.608 1237.03 982.597 1235.42 983.805L1223.95 992.396C1222.55 993.442 1221.35 994.349 1220.35 995.026C1219.43 995.715 1218.58 996.144 1217.77 996.341C1217.12 996.553 1216.41 996.539 1215.78 996.255C1215.24 995.979 1214.58 995.369 1213.92 994.491L1212.02 995.904C1212.61 996.7 1213.29 997.495 1213.97 998.422C1214.74 999.354 1215.37 1000.2 1215.93 1000.94C1216.66 1001.9 1217.41 1002.92 1218.19 1004.05C1219.05 1005.2 1219.83 1006.26 1220.48 1007.21L1222.38 1005.79C1221.82 1005.01 1221.31 1004.2 1220.84 1003.37C1220.68 1003.09 1220.59 1002.78 1220.56 1002.46C1220.54 1002.14 1220.58 1001.81 1220.68 1001.51C1220.96 1000.89 1221.57 1000.14 1222.52 999.297C1223.93 998.149 1225.36 997.032 1226.81 995.947L1238.16 987.455C1239.13 986.726 1240.16 986.099 1241.27 985.465C1242.46 984.855 1243.7 984.472 1244.86 984.294C1246.11 984.115 1247.35 984.222 1248.49 984.656C1249.76 985.08 1250.86 985.975 1251.85 987.296C1252.76 988.523 1253.26 989.741 1253.33 990.932C1253.45 992.204 1253.19 993.424 1252.62 994.675C1252.02 996.03 1251.17 997.266 1250.14 998.327C1249.06 999.543 1247.72 1000.68 1246.22 1001.8L1232.36 1012.18C1231.57 1012.77 1230.85 1013.17 1230.25 1013.28C1229.67 1013.44 1229.13 1013.36 1228.6 1013.21C1228.11 1012.96 1227.65 1012.62 1227.26 1012.23C1226.93 1011.79 1226.49 1011.29 1226.03 1010.68L1224.14 1012.09C1224.53 1012.62 1224.96 1013.2 1225.42 1013.81C1225.93 1014.38 1226.39 1015 1226.85 1015.62C1227.38 1016.24 1227.85 1016.87 1228.31 1017.49C1228.77 1018.1 1229.19 1018.67 1229.56 1019.15C1229.95 1019.69 1230.35 1020.21 1230.77 1020.78C1231.23 1021.4 1231.67 1021.97 1232.09 1022.62C1232.54 1023.23 1233.01 1023.85 1233.39 1024.45C1233.85 1025.08 1234.28 1025.64 1234.67 1026.18L1236.56 1024.75C1236.14 1024.19 1235.78 1023.62 1235.39 1023.09C1235.14 1022.61 1234.96 1022.1 1234.86 1021.57C1234.86 1021.02 1234.97 1020.52 1235.25 1019.98C1235.55 1019.46 1236.11 1018.84 1236.9 1018.24L1251.91 1007.02C1256.13 1003.85 1258.58 1000.51 1259.21 996.95C1259.86 993.438 1258.83 989.757 1256 985.971C1254.52 983.999 1252.93 982.504 1251.23 981.518ZM1267.15 1002.42L1265.4 1004.02C1265.62 1004.27 1265.85 1004.5 1266.1 1004.87C1266.44 1005.23 1266.73 1005.64 1266.94 1006.11C1267.23 1006.59 1267.48 1007.11 1267.61 1007.66C1267.82 1008.21 1267.87 1008.84 1267.76 1009.53L1265.35 1033.77L1252.19 1033.45C1250.37 1033.41 1248.82 1033.27 1247.54 1033.09C1246.34 1032.92 1245.34 1032.64 1244.42 1032.29C1243.66 1032 1242.93 1031.62 1242.26 1031.14C1241.68 1030.67 1241.13 1030.15 1240.62 1029.59L1238.88 1031.18L1240.03 1032.45C1240.59 1032.98 1241.07 1033.5 1241.59 1034.07C1242.18 1034.64 1242.7 1035.21 1243.18 1035.74C1243.7 1036.3 1244.08 1036.71 1244.37 1037.03C1245.19 1037.93 1245.97 1038.79 1246.7 1039.67C1247.52 1040.55 1248.33 1041.45 1249.07 1042.34L1250.82 1040.74C1250.33 1040.22 1249.88 1039.65 1249.44 1039.16C1249.09 1038.6 1249.02 1038.21 1249.31 1037.96C1249.47 1037.81 1249.7 1037.74 1250.1 1037.68C1250.56 1037.62 1251.04 1037.56 1251.5 1037.58C1252.05 1037.54 1252.52 1037.55 1252.95 1037.53C1253.3 1037.52 1253.65 1037.52 1253.99 1037.54L1268.71 1037.77L1260.58 1045.22C1259.84 1045.88 1259.16 1046.36 1258.57 1046.53C1258.07 1046.73 1257.53 1046.79 1257 1046.7C1256.55 1046.57 1256.12 1046.35 1255.75 1046.05C1255.41 1045.68 1255.04 1045.36 1254.67 1044.95L1252.93 1046.55C1253.25 1046.92 1253.63 1047.32 1254.08 1047.81C1254.56 1048.25 1255.05 1048.78 1255.52 1049.31C1256.08 1049.84 1256.56 1050.37 1257.04 1050.89C1257.56 1051.47 1258.05 1051.99 1258.46 1052.43C1258.91 1052.92 1259.35 1053.4 1259.83 1053.93C1260.35 1054.5 1260.83 1055.03 1261.31 1055.63C1261.83 1056.2 1262.35 1056.77 1262.78 1057.33C1263.3 1057.9 1263.79 1058.43 1264.23 1058.92L1265.97 1057.31C1265.5 1056.79 1265.09 1056.26 1264.64 1055.77C1264.35 1055.32 1264.13 1054.83 1263.97 1054.31C1263.91 1053.76 1263.99 1053.21 1264.2 1052.69C1264.46 1052.15 1264.95 1051.48 1265.69 1050.81L1285.74 1032.45C1286.52 1031.74 1287.19 1031.36 1287.75 1031.14C1288.33 1030.98 1288.88 1030.92 1289.35 1031.09C1289.88 1031.2 1290.38 1031.49 1290.75 1031.9C1291.28 1032.31 1291.72 1032.81 1292.2 1033.33L1293.94 1031.74C1293.01 1030.81 1292.02 1029.7 1290.83 1028.41C1289.78 1027.33 1288.76 1026.23 1287.75 1025.12C1287.38 1024.72 1286.93 1024.23 1286.45 1023.62L1285.01 1022.03C1284.54 1021.54 1284.1 1021.03 1283.68 1020.5C1283.24 1020.02 1282.86 1019.62 1282.49 1019.21L1280.74 1020.8C1281.16 1021.25 1281.53 1021.65 1281.78 1022.09C1282.14 1022.47 1282.35 1022.96 1282.38 1023.48C1282.52 1023.95 1282.38 1024.45 1282.12 1024.98C1281.9 1025.55 1281.4 1026.15 1280.63 1026.86L1272.81 1034.02L1274.99 1013.93C1275.08 1013.43 1275.09 1012.92 1275.02 1012.42C1274.94 1012 1274.82 1011.59 1274.65 1011.2C1274.41 1010.73 1274.13 1010.29 1273.81 1009.88C1273.44 1009.47 1273.08 1008.99 1272.56 1008.42C1272.26 1008.1 1271.9 1007.69 1271.37 1007.12C1270.89 1006.6 1270.37 1006.02 1269.81 1005.42C1269.3 1004.85 1268.81 1004.33 1268.33 1003.73C1267.85 1003.19 1267.45 1002.75 1267.16 1002.42L1267.15 1002.42ZM1298.54 1035.37L1277.04 1059.71C1276.09 1060.79 1275.28 1061.53 1274.57 1062C1274.01 1062.39 1273.35 1062.62 1272.67 1062.67C1272.06 1062.62 1271.47 1062.43 1270.95 1062.11C1270.36 1061.68 1269.79 1061.23 1269.24 1060.75L1267.67 1062.51C1268.49 1063.24 1269.39 1063.96 1270.38 1064.84C1271.44 1065.71 1272.35 1066.5 1273.13 1067.19C1274.12 1068.06 1275.15 1068.98 1276.26 1070.04C1277.42 1071.05 1278.5 1072 1279.41 1072.87L1280.96 1071.11C1279.98 1070.24 1279.19 1069.39 1278.67 1068.64C1278.2 1067.86 1277.95 1067.13 1277.95 1066.39C1277.98 1065.69 1278.22 1064.93 1278.64 1064.13C1279.09 1063.36 1279.73 1062.46 1280.61 1061.47L1293.45 1046.94L1292.48 1084.79C1292.84 1084.97 1293.24 1085.26 1293.65 1085.62C1294.18 1085.93 1294.63 1086.34 1295.08 1086.74C1295.61 1087.14 1296.11 1087.57 1296.52 1087.93C1297.01 1088.29 1297.38 1088.62 1297.62 1088.84C1298.28 1089.43 1298.98 1090.04 1299.77 1090.81C1300.64 1091.57 1301.38 1092.23 1301.96 1092.82L1303.52 1091.04C1301.75 1089.48 1300.81 1087.98 1300.64 1086.51C1300.55 1085.05 1301.3 1083.36 1302.94 1081.51L1317.16 1065.4C1318.4 1064 1319.43 1063.08 1320.29 1062.52C1321.2 1061.99 1321.96 1061.72 1322.62 1061.72C1323.36 1061.72 1324.03 1061.94 1324.56 1062.33C1325.21 1062.76 1325.79 1063.28 1326.4 1063.82L1327.98 1062.05C1326.92 1061.2 1325.89 1060.31 1324.88 1059.4C1323.74 1058.46 1322.71 1057.55 1321.8 1056.75C1320.89 1055.95 1319.91 1055.07 1318.79 1054.01C1317.69 1053.03 1316.69 1052.08 1315.78 1051.29L1314.22 1053.05C1315.38 1054.07 1316.17 1054.92 1316.6 1055.66C1317.11 1056.41 1317.29 1057.22 1317.14 1058.05C1317.03 1058.83 1316.58 1059.76 1315.82 1060.77C1315.15 1061.79 1314.09 1063.07 1312.79 1064.54L1300.24 1078.75L1301.34 1037.85L1298.54 1035.37ZM1328.98 1062.74L1328.13 1063.95C1328.84 1064.45 1329.43 1065.07 1329.92 1065.69C1330.42 1066.31 1330.69 1066.98 1330.66 1067.69C1330.65 1068.09 1330.59 1068.65 1330.36 1069.36C1330.24 1070.08 1330.01 1070.88 1329.73 1071.75C1329.56 1072.57 1329.3 1073.4 1328.98 1074.24C1328.77 1075.11 1328.54 1075.82 1328.35 1076.36L1319.36 1107.21L1319.58 1107.38C1320.75 1107.53 1321.86 1107.77 1322.9 1108.1C1324.05 1108.39 1324.98 1108.71 1325.82 1109.04C1325.92 1108.77 1326.03 1108.51 1326.16 1108.26L1326.7 1107.5C1327.21 1106.78 1327.87 1106.11 1328.59 1105.48C1329.44 1104.86 1330.09 1104.31 1330.66 1103.91L1348.28 1091.15C1349.24 1090.48 1350.12 1089.81 1350.98 1089.15C1351.94 1088.47 1352.87 1087.81 1353.84 1087.21C1354.44 1086.82 1355.07 1086.47 1355.72 1086.18C1356.31 1085.92 1356.79 1085.8 1357.19 1085.8C1357.69 1085.76 1358.17 1085.83 1358.64 1086.03C1359.19 1086.21 1359.84 1086.53 1360.57 1086.91L1361.43 1085.71C1360.51 1085.12 1359.47 1084.39 1358.31 1083.56C1357.25 1082.87 1356.21 1082.15 1355.19 1081.42C1354.34 1080.82 1353.3 1080.09 1352.16 1079.22C1351.04 1078.42 1350.09 1077.68 1349.19 1077.04L1348.34 1078.25L1349.36 1078.98C1349.76 1079.27 1350.1 1079.57 1350.46 1079.82C1350.83 1080.16 1351.11 1080.42 1351.25 1080.79C1351.36 1080.96 1351.43 1081.15 1351.46 1081.34C1351.5 1081.54 1351.49 1081.74 1351.45 1081.94C1351.44 1082.33 1351.21 1082.85 1350.83 1083.39C1350.31 1084.1 1349.59 1084.86 1348.59 1085.71C1347.66 1086.54 1346.69 1087.33 1345.64 1088.14L1343.54 1089.8L1334.08 1083.1L1336.14 1076.08C1336.32 1075.54 1336.58 1074.91 1336.78 1074.24C1337.06 1073.56 1337.25 1073.1 1337.41 1072.88C1337.89 1072.21 1338.44 1071.99 1339.11 1072.2C1339.77 1072.39 1340.45 1072.67 1340.99 1073.05L1341.79 1073.63L1342.65 1072.41C1341.37 1071.57 1340.1 1070.69 1338.86 1069.79C1337.44 1068.85 1336.18 1067.97 1335.06 1067.17C1334.21 1066.56 1333.18 1065.84 1332 1064.93C1330.84 1064.11 1329.88 1063.37 1328.98 1062.73L1328.98 1062.74ZM1362.61 1086.34L1360.94 1089.48C1361.97 1090 1362.84 1090.47 1363.49 1091C1364.37 1091.46 1364.91 1092.02 1365.25 1092.77C1365.68 1093.37 1365.88 1094.22 1365.79 1095.1C1365.76 1096.02 1365.37 1097.12 1364.64 1098.51L1345.57 1134.55C1344.88 1135.85 1344.15 1136.88 1343.4 1137.41C1342.72 1137.99 1341.96 1138.22 1341.13 1138.36C1340.4 1138.34 1339.63 1138.21 1338.68 1137.9C1337.95 1137.51 1337.04 1137.12 1336.02 1136.57L1334.36 1139.7C1335.23 1140.17 1336.11 1140.63 1337.06 1141.13C1338.12 1141.59 1339.06 1142.1 1340.01 1142.61C1341.03 1143.14 1341.98 1143.64 1342.84 1144.1C1343.9 1144.56 1344.78 1145.04 1345.51 1145.42C1347.26 1146.35 1349.3 1147.42 1351.44 1148.64C1353.7 1149.84 1355.8 1150.96 1357.66 1152.03L1359.31 1148.9C1358.37 1148.4 1357.54 1147.87 1356.66 1147.41C1356.02 1146.9 1355.46 1146.32 1354.97 1145.67C1354.61 1144.92 1354.44 1144.09 1354.48 1143.26C1354.57 1142.38 1354.92 1141.17 1355.62 1139.87L1362.82 1126.24L1384.95 1137.96L1377.75 1151.56C1377.06 1152.87 1376.33 1153.9 1375.58 1154.44C1374.9 1155.01 1374.13 1155.24 1373.31 1155.36C1372.57 1155.35 1371.8 1155.23 1370.86 1154.91C1370.13 1154.53 1369.22 1154.14 1368.19 1153.61L1366.54 1156.73L1369.38 1158.23C1370.44 1158.69 1371.45 1159.24 1372.48 1159.77C1373.6 1160.28 1374.63 1160.81 1375.64 1161.35C1376.66 1161.89 1377.61 1162.4 1378.4 1162.82C1379.29 1163.28 1380.16 1163.74 1381.1 1164.24C1382.12 1164.78 1383.07 1165.28 1384.05 1165.89C1385.07 1166.43 1386.08 1166.97 1386.99 1167.55C1388.01 1168.09 1388.97 1168.6 1389.84 1169.06L1391.49 1165.92C1390.54 1165.42 1389.71 1164.88 1388.83 1164.42C1388.2 1163.91 1387.63 1163.33 1387.14 1162.68C1386.78 1161.94 1386.61 1161.12 1386.64 1160.29C1386.74 1159.4 1387.1 1158.19 1387.8 1156.88L1406.86 1120.83C1407.59 1119.45 1408.35 1118.54 1409.03 1117.97C1409.77 1117.43 1410.52 1117.08 1411.25 1117.1C1412.08 1116.98 1412.91 1117.13 1413.65 1117.52C1414.6 1117.84 1415.46 1118.3 1416.41 1118.8L1418.07 1115.67C1416.28 1114.82 1414.32 1113.77 1411.99 1112.54C1409.76 1111.46 1407.73 1110.39 1405.98 1109.46C1404.13 1108.5 1402.3 1107.5 1400.49 1106.48C1398.45 1105.39 1396.52 1104.28 1394.78 1103.35L1393.12 1106.47C1394.14 1107.02 1395.02 1107.48 1395.67 1108.02C1396.54 1108.48 1397.08 1109.04 1397.43 1109.78C1397.86 1110.38 1398.06 1111.23 1397.96 1112.12C1397.95 1113.03 1397.55 1114.13 1396.82 1115.52L1387.8 1132.56L1365.67 1120.85L1374.69 1103.82C1375.42 1102.43 1376.18 1101.53 1376.86 1100.96C1377.6 1100.41 1378.35 1100.07 1379.09 1100.08C1379.9 1099.95 1380.74 1100.12 1381.47 1100.5C1382.42 1100.81 1383.3 1101.28 1384.24 1101.78L1385.9 1098.65C1383.8 1097.63 1381.72 1096.56 1379.67 1095.45C1377.44 1094.37 1375.56 1093.37 1373.81 1092.44C1372.21 1091.59 1370.31 1090.6 1368.17 1089.37C1366.29 1088.39 1364.44 1087.38 1362.61 1086.33L1362.61 1086.34ZM1332.81 1087.19L1339.97 1092.26L1328.81 1100.91L1328.72 1100.85L1332.81 1087.19Z" fill="#002D56" fill-opacity="0.125"/>
</g>
<defs>
<clipPath id="clip0_7_6">
<rect width="1920" height="1080" fill="white"/>
</clipPath>
</defs>
</svg>
