<svg width="500" height="198" viewBox="0 0 500 198" fill="none" xmlns="http://www.w3.org/2000/svg">
<path d="M221.264 98.8372C221.264 153.423 176.879 197.674 122.126 197.674C67.3741 197.674 22.9885 153.423 22.9885 98.8372C22.9885 44.2509 67.3741 0 122.126 0C176.879 0 221.264 44.2509 221.264 98.8372ZM74.7097 98.8372C74.7097 124.945 95.9389 146.11 122.126 146.11C148.314 146.11 169.543 124.945 169.543 98.8372C169.543 72.7291 148.314 51.5643 122.126 51.5643C95.9389 51.5643 74.7097 72.7291 74.7097 98.8372Z" fill="white"/>
<path fill-rule="evenodd" clip-rule="evenodd" d="M500 0H301.724V197.674H500V0ZM448.276 51.5673H353.448V146.107H448.276V51.5673Z" fill="white"/>
<path d="M0 0H244.253V51.5672H0V0Z" fill="white"/>
</svg>
