<svg width="1083" height="829" viewBox="0 0 1083 829" fill="none" xmlns="http://www.w3.org/2000/svg">
<g filter="url(#filter0_f_180_4)">
<path fill-rule="evenodd" clip-rule="evenodd" d="M1215.93 432C1218.92 424.933 1220.5 417.024 1220.5 408.185C1220.5 289.72 1104.57 136 937.5 136C724.5 98.5001 395 251.984 395 370.449C395 396.901 405.359 416.896 423.31 432H1215.93Z" fill="#62B7FF"/>
</g>
<g filter="url(#filter1_f_180_4)">
<path fill-rule="evenodd" clip-rule="evenodd" d="M1133.12 529C1134.47 523.487 1135.16 517.275 1135.16 510.297C1135.16 391.832 623.728 254.297 456.662 254.297C285.684 224.195 294.479 306.725 304.604 401.734C307.093 425.085 309.662 449.189 309.662 472.561C309.662 500.415 325.746 518.156 352.522 529H701.584C724.956 527.525 747.235 526.561 767.662 526.561C783.359 526.561 799.351 527.463 815.444 529H1133.12Z" fill="#FF74FD"/>
</g>
<defs>
<filter id="filter0_f_180_4" x="95.0001" y="-169.757" width="1425.5" height="901.757" filterUnits="userSpaceOnUse" color-interpolation-filters="sRGB">
<feFlood flood-opacity="0" result="BackgroundImageFix"/>
<feBlend mode="normal" in="SourceGraphic" in2="BackgroundImageFix" result="shape"/>
<feGaussianBlur stdDeviation="150" result="effect1_foregroundBlur_180_4"/>
</filter>
<filter id="filter1_f_180_4" x="0" y="-52" width="1435.16" height="881" filterUnits="userSpaceOnUse" color-interpolation-filters="sRGB">
<feFlood flood-opacity="0" result="BackgroundImageFix"/>
<feBlend mode="normal" in="SourceGraphic" in2="BackgroundImageFix" result="shape"/>
<feGaussianBlur stdDeviation="150" result="effect1_foregroundBlur_180_4"/>
</filter>
</defs>
</svg>
