<svg width="1920" height="1080" viewBox="0 0 1920 1080" fill="none" xmlns="http://www.w3.org/2000/svg">
<g clip-path="url(#clip0_214_79)">
<rect width="1920" height="1080" fill="#000D18"/>
<g filter="url(#filter0_f_214_79)">
<ellipse cx="406.636" cy="81.8806" rx="406.636" ry="81.8806" transform="matrix(0.940316 0.340302 -0.387647 0.921808 1264.8 159)" fill="#8D704F"/>
</g>
<g filter="url(#filter1_f_214_79)">
<path d="M1957.09 963.484C1932.38 1001.91 1703.66 917.53 1446.25 775.022C1188.83 632.514 1000.19 485.84 1024.91 447.416C1049.63 408.993 1278.34 493.37 1535.76 635.878C1793.17 778.386 1981.81 925.06 1957.09 963.484Z" fill="#8D704F"/>
</g>
<g filter="url(#filter2_f_214_79)">
<path d="M1856.18 1553.41C1823.34 1586.19 1551.34 1401.14 1248.66 1140.11C945.975 879.073 727.224 640.897 760.065 608.125C792.906 575.353 1064.9 760.397 1367.58 1021.43C1670.27 1282.47 1889.02 1520.64 1856.18 1553.41Z" fill="#8D704F"/>
</g>
<g filter="url(#filter3_f_214_79)">
<path d="M1143.35 1920C1101.96 1942.96 898.097 1697.43 688.013 1371.57C477.93 1045.72 341.181 762.94 382.576 739.973C423.971 717.006 627.834 962.545 837.917 1288.4C1048 1614.25 1184.75 1897.03 1143.35 1920Z" fill="#8D704F"/>
</g>
<g filter="url(#filter4_f_214_79)">
<path d="M530.855 2203.29C486.57 2221.02 313.743 1941.08 144.835 1578.03C-24.0731 1214.97 -125.1 906.281 -80.8149 888.55C-36.5299 870.819 136.297 1150.76 305.205 1513.82C474.113 1876.87 575.14 2185.56 530.855 2203.29Z" fill="#8D704F"/>
</g>
</g>
<defs>
<filter id="filter0_f_214_79" x="1031.72" y="15.2021" width="1167.4" height="715.31" filterUnits="userSpaceOnUse" color-interpolation-filters="sRGB">
<feFlood flood-opacity="0" result="BackgroundImageFix"/>
<feBlend mode="normal" in="SourceGraphic" in2="BackgroundImageFix" result="shape"/>
<feGaussianBlur stdDeviation="100" result="effect1_foregroundBlur_214_79"/>
</filter>
<filter id="filter1_f_214_79" x="822.732" y="238.135" width="1336.54" height="934.629" filterUnits="userSpaceOnUse" color-interpolation-filters="sRGB">
<feFlood flood-opacity="0" result="BackgroundImageFix"/>
<feBlend mode="normal" in="SourceGraphic" in2="BackgroundImageFix" result="shape"/>
<feGaussianBlur stdDeviation="100" result="effect1_foregroundBlur_214_79"/>
</filter>
<filter id="filter2_f_214_79" x="556.802" y="404.364" width="1502.64" height="1352.81" filterUnits="userSpaceOnUse" color-interpolation-filters="sRGB">
<feFlood flood-opacity="0" result="BackgroundImageFix"/>
<feBlend mode="normal" in="SourceGraphic" in2="BackgroundImageFix" result="shape"/>
<feGaussianBlur stdDeviation="100" result="effect1_foregroundBlur_214_79"/>
</filter>
<filter id="filter3_f_214_79" x="175.188" y="538.484" width="1175.55" height="1583" filterUnits="userSpaceOnUse" color-interpolation-filters="sRGB">
<feFlood flood-opacity="0" result="BackgroundImageFix"/>
<feBlend mode="normal" in="SourceGraphic" in2="BackgroundImageFix" result="shape"/>
<feGaussianBlur stdDeviation="100" result="effect1_foregroundBlur_214_79"/>
</filter>
<filter id="filter4_f_214_79" x="-291.229" y="687.752" width="1032.5" height="1716.34" filterUnits="userSpaceOnUse" color-interpolation-filters="sRGB">
<feFlood flood-opacity="0" result="BackgroundImageFix"/>
<feBlend mode="normal" in="SourceGraphic" in2="BackgroundImageFix" result="shape"/>
<feGaussianBlur stdDeviation="100" result="effect1_foregroundBlur_214_79"/>
</filter>
<clipPath id="clip0_214_79">
<rect width="1920" height="1080" fill="white"/>
</clipPath>
</defs>
</svg>
